<svg width="46" height="43" viewBox="0 0 46 43" fill="none" xmlns="http://www.w3.org/2000/svg">
<path d="M21.1733 20.2016C20.3261 16.4525 16.4439 13.98 12.3758 14.6502C8.22231 15.3355 5.44884 19.0376 6.18196 22.9202C6.8486 26.4534 10.1881 28.9183 13.9139 28.8175" stroke="#FFD0A1" stroke-miterlimit="10" stroke-linecap="round" stroke-linejoin="round"/>
<path d="M15.5508 21.3761L15.8588 21.3254" stroke="#FFD0A1" stroke-miterlimit="10" stroke-linecap="round" stroke-linejoin="round"/>
<path d="M14.0831 23.6963L14.0288 23.4084" stroke="#FFD0A1" stroke-miterlimit="10" stroke-linecap="round" stroke-linejoin="round"/>
<path d="M13.3766 19.9531L13.3223 19.6651" stroke="#FFD0A1" stroke-miterlimit="10" stroke-linecap="round" stroke-linejoin="round"/>
<path d="M11.5464 22.0361L11.8545 21.9854" stroke="#FFD0A1" stroke-miterlimit="10" stroke-linecap="round" stroke-linejoin="round"/>
<path d="M36.4637 25.3532C36.9049 25.5363 37.3379 25.779 37.7449 26.0982C39.2974 27.3159 39.7448 29.0729 39.8491 30.3184C39.9245 31.2237 39.2076 32.0224 38.2409 32.1106C36.9094 32.2307 34.9813 32.124 33.4288 30.9063C33.4028 30.8861 33.3767 30.8651 33.3516 30.8441" stroke="#FFD0A1" stroke-miterlimit="10" stroke-linecap="round" stroke-linejoin="round"/>
<path d="M36.6558 29.3416L33.7979 27.1001" stroke="#FFD0A1" stroke-miterlimit="10" stroke-linecap="round" stroke-linejoin="round"/>
<path d="M36.8224 21.3471C37.5403 21.6948 38.383 21.8116 39.2222 21.6301C39.268 21.6201 39.3129 21.6108 39.3587 21.6008C41.4683 21.1456 42.6353 19.0401 41.8348 17.1588C39.6938 12.1231 35.8692 7.86259 30.9359 5.01636C29.0932 3.95395 26.6719 4.66194 25.8256 6.52556C25.8076 6.56503 25.7896 6.60534 25.7717 6.64565C25.2964 7.68958 25.4446 8.84436 26.0771 9.74132C26.078 9.74216 26.078 9.74216 26.078 9.74216" stroke="#FFD0A1" stroke-miterlimit="10" stroke-linecap="round" stroke-linejoin="round"/>
<path d="M33.4246 15.915C34.9277 17.7467 36.1639 19.7741 37.0875 21.9459C37.888 23.8263 36.721 25.9327 34.6114 26.3879C34.5656 26.3979 34.5207 26.4072 34.4749 26.4173C32.7696 26.7851 31.0473 25.9226 30.3978 24.4025C28.8282 20.729 26.0368 17.6182 22.4385 15.5354C20.9498 14.6746 20.3398 12.9386 21.0244 11.4328C21.0423 11.3925 21.0603 11.3521 21.0783 11.3127C21.9246 9.44905 24.3459 8.74106 26.1886 9.80347C28.0906 10.9011 29.8282 12.2088 31.3681 13.6903" stroke="#FFD0A1" stroke-miterlimit="10" stroke-linecap="round" stroke-linejoin="round"/>
<path d="M33.8018 26.4996C33.8342 27.2269 33.7057 28.0449 33.4442 28.8747C33.0022 30.2781 33.8261 31.8528 33.1208 33.6635C32.0984 36.2905 29.8613 36.1956 28.4822 37.1581C28.2252 37.337 27.9988 37.5528 27.8146 37.8308C26.2828 40.137 22.6199 40.184 20.0404 39.0091C17.4601 37.8341 18.9596 37.4848 15.1799 35.6304C13.5852 34.8477 14.25 32.3508 14.3255 30.7257C14.3857 29.1418 13.2707 28.1667 13.702 27.0598C14.2374 25.685 15.6884 25.6799 16.8797 24.5621C18.2552 23.2729 17.7997 21.6084 19.9245 20.6425C20.9389 20.1815 22.008 19.9614 23.0673 19.9614C23.4617 19.9614 23.8552 19.9925 24.2433 20.0521C25.5119 20.247 26.7302 20.7551 27.7841 21.5387C28.3842 21.9854 28.9458 22.2979 29.4704 22.5423" stroke="#FFD0A1" stroke-miterlimit="10" stroke-linecap="round" stroke-linejoin="round"/>
<path d="M26.6171 33.1545C25.4015 34.1724 23.6405 34.547 21.9991 33.9885C19.6254 33.1814 18.4018 30.7282 19.2661 28.5094C20.1295 26.2905 22.7538 25.1466 25.1275 25.9537C27.1921 26.6567 28.387 28.6043 28.0941 30.5603" stroke="#FFD0A1" stroke-miterlimit="10" stroke-linecap="round" stroke-linejoin="round"/>
<path d="M14.6106 6.29298C14.306 5.62362 14.6133 4.81317 15.3635 4.50411C16.5261 4.02456 17.7956 3.81544 19.0633 3.89438C20.0048 3.95233 20.6382 4.82325 20.3624 5.66646C20.3588 5.67485 20.3561 5.68409 20.3534 5.69249C20.1522 6.30726 19.5224 6.69946 18.836 6.66083C18.5889 6.64655 18.3418 6.65075 18.0974 6.67175" stroke="#FFD0A1" stroke-miterlimit="10" stroke-linecap="round" stroke-linejoin="round"/>
<path d="M11.1406 11.0305C10.9825 11.1019 10.8342 11.2027 10.7058 11.3312C10.6995 11.3379 10.6923 11.3446 10.686 11.3513C10.217 11.8217 10.1685 12.5271 10.5476 13.0638C10.9394 13.6189 11.1981 14.2463 11.3041 14.9022" stroke="#FFD0A1" stroke-miterlimit="10" stroke-linecap="round" stroke-linejoin="round"/>
<path d="M13.0264 11.5436C12.9582 11.7738 12.9555 12.0249 13.0336 12.276C13.2888 13.0982 13.6958 13.87 14.2321 14.5578" stroke="#FFD0A1" stroke-miterlimit="10" stroke-linecap="round" stroke-linejoin="round"/>
<path d="M15.957 11.7158C16.1834 12.3339 16.5509 12.9008 17.0334 13.3762C17.5059 13.8431 17.5895 14.5461 17.2148 15.0853C17.2095 15.0928 17.2041 15.1004 17.1987 15.1079C17.1582 15.1667 17.1133 15.2213 17.0648 15.2717" stroke="#FFD0A1" stroke-miterlimit="10" stroke-linecap="round" stroke-linejoin="round"/>
<path d="M12.2886 8.52695C11.9975 8.31027 11.798 7.99449 11.7495 7.62916C11.7486 7.61992 11.7477 7.61068 11.7459 7.60144C11.6318 6.72633 12.4162 5.97214 13.3541 6.06705C14.3882 6.17203 15.3882 6.46765 16.2956 6.93377" stroke="#FFD0A1" stroke-miterlimit="10" stroke-linecap="round" stroke-linejoin="round"/>
<path d="M15.9338 11.7419C16.2959 12.0098 16.7909 12.1181 17.2779 11.9787C17.2869 11.9762 17.2967 11.9737 17.3057 11.9711C17.9634 11.783 18.3829 11.1943 18.3416 10.5527C18.2949 9.8329 18.4306 9.11316 18.7378 8.4522C19.011 7.86263 18.8331 7.17564 18.2832 6.78847C18.276 6.78259 18.2679 6.77755 18.2599 6.77167C17.5061 6.24089 16.4154 6.49956 16.0344 7.30665C15.6957 8.02388 15.4837 8.78562 15.4028 9.56163" stroke="#FFD0A1" stroke-miterlimit="10" stroke-linecap="round" stroke-linejoin="round"/>
<path d="M10.5109 10.0685C10.5097 10.0594 10.5085 10.0502 10.5073 10.041C10.3924 9.1658 11.1775 8.4117 12.1153 8.50677C13.3783 8.63485 14.5903 9.04721 15.6458 9.708C16.4296 10.1986 16.5125 11.2481 15.8227 11.8495C15.8154 11.8558 15.8083 11.8621 15.801 11.8684C15.298 12.3068 14.5433 12.3519 13.9695 11.9975C13.3262 11.6002 12.5911 11.3501 11.8251 11.2679C11.1419 11.1947 10.5947 10.7066 10.5109 10.0685Z" stroke="#FFD0A1" stroke-miterlimit="10" stroke-linecap="round" stroke-linejoin="round"/>
<path d="M11.2217 17.6854C11.9503 17.289 12.7975 17.0614 13.7023 17.0614C16.4048 17.0614 18.5996 19.0888 18.6428 21.6041" stroke="#FFD0A1" stroke-miterlimit="10" stroke-linecap="round" stroke-linejoin="round"/>
<path d="M9.14437 19.8925C8.8973 20.4426 8.76074 21.0465 8.76074 21.6805C8.76074 24.232 10.9736 26.2997 13.7021 26.2997C13.88 26.2997 14.0561 26.2913 14.2286 26.2736" stroke="#FFD0A1" stroke-miterlimit="10" stroke-linecap="round" stroke-linejoin="round"/>
<path d="M23 42.3701C35.3304 42.3701 45.3262 33.0262 45.3262 21.5C45.3262 9.97375 35.3304 0.629883 23 0.629883C10.6696 0.629883 0.673828 9.97375 0.673828 21.5C0.673828 33.0262 10.6696 42.3701 23 42.3701Z" stroke="#FFD0A1" stroke-miterlimit="10" stroke-linecap="round" stroke-linejoin="round"/>
</svg>
