<svg width="45" height="45" viewBox="0 0 45 45" fill="none" xmlns="http://www.w3.org/2000/svg">
<g clip-path="url(#clip0_116_18)">
<path d="M38.3203 16.1719H36.1561C36.1891 15.236 36.2109 14.2987 36.2109 13.3594C36.2109 13.1729 36.1369 12.9941 36.005 12.8622C35.8731 12.7303 35.6943 12.6562 35.5078 12.6562H33.7106C33.9637 12.2306 34.0986 11.7452 34.1016 11.25C34.1016 10.5041 33.8052 9.78871 33.2778 9.26126C32.7504 8.73382 32.035 8.4375 31.2891 8.4375H28.9336C29.1611 7.80158 29.2323 7.12022 29.1409 6.45102C29.0496 5.78182 28.7985 5.14444 28.4089 4.59275C28.0192 4.04106 27.5025 3.59127 26.9024 3.28141C26.3022 2.97155 25.6363 2.81071 24.9609 2.8125H24.2578C24.1376 2.81184 24.0193 2.84199 23.9141 2.90007C23.8089 2.95815 23.7204 3.04222 23.6569 3.14426C23.5934 3.2463 23.5572 3.3629 23.5516 3.48293C23.546 3.60297 23.5713 3.72243 23.625 3.82992C23.7196 4.0187 23.7645 4.22851 23.7552 4.43947C23.746 4.65043 23.6831 4.85554 23.5724 5.03535C23.4616 5.21515 23.3068 5.3637 23.1226 5.46689C22.9384 5.57009 22.7308 5.62451 22.5197 5.625H13.7109C12.965 5.625 12.2496 5.92132 11.7222 6.44876C11.1948 6.97621 10.8984 7.69158 10.8984 8.4375H10.1953V4.92187C10.1953 3.61651 9.67676 2.36461 8.75373 1.44158C7.8307 0.518553 6.5788 0 5.27344 0C3.96808 0 2.71618 0.518553 1.79315 1.44158C0.870116 2.36461 0.351563 3.61651 0.351562 4.92187V7.03125C0.351563 7.59069 0.5738 8.12722 0.969384 8.5228C1.36497 8.91839 1.9015 9.14062 2.46094 9.14062C3.02038 9.14062 3.55691 8.91839 3.95249 8.5228C4.34808 8.12722 4.57031 7.59069 4.57031 7.03125V4.92187C4.57031 4.73539 4.64439 4.55655 4.77625 4.42469C4.90811 4.29283 5.08696 4.21875 5.27344 4.21875C5.45992 4.21875 5.63876 4.29283 5.77062 4.42469C5.90248 4.55655 5.97656 4.73539 5.97656 4.92187V11.25C5.97948 11.7452 6.11443 12.2306 6.3675 12.6562H4.57031C4.38383 12.6562 4.20499 12.7303 4.07313 12.8622C3.94127 12.9941 3.86719 13.1729 3.86719 13.3594C3.85963 23.2053 5.70115 32.9651 9.29602 42.1312C9.62365 42.979 10.2011 43.7072 10.9518 44.2195C11.7025 44.7318 12.5911 45.004 13.5 45H26.5781C27.4867 45.0037 28.3751 44.7314 29.1255 44.2191C29.876 43.7069 30.4532 42.9788 30.7807 42.1312C31.5012 40.2937 32.1488 38.4375 32.7234 36.5625L34.7829 35.9191C37.6476 35.0338 40.1523 33.2521 41.9284 30.8363C43.7044 28.4205 44.6579 25.4984 44.6484 22.5C44.6464 20.8223 43.979 19.2139 42.7927 18.0276C41.6064 16.8413 39.998 16.1739 38.3203 16.1719ZM3.16406 7.03125C3.16406 7.21773 3.08998 7.39657 2.95812 7.52843C2.82626 7.6603 2.64742 7.73437 2.46094 7.73437C2.27446 7.73437 2.09561 7.6603 1.96375 7.52843C1.83189 7.39657 1.75781 7.21773 1.75781 7.03125V5.625H3.16406V7.03125ZM4.57031 2.94187C4.27623 3.04692 4.00915 3.21595 3.78833 3.43677C3.56752 3.65758 3.39848 3.92467 3.29344 4.21875H1.82812C1.96727 3.54373 2.30115 2.92428 2.78849 2.43693C3.27584 1.94959 3.8953 1.61571 4.57031 1.47656V2.94187ZM35.8966 20.3906H38.3203C38.8798 20.3906 39.4163 20.6129 39.8119 21.0084C40.2075 21.404 40.4297 21.9406 40.4297 22.5C40.4355 24.5018 39.8274 26.4573 38.6875 28.1029C37.5476 29.7485 35.9306 31.005 34.0545 31.7032C34.9437 27.9823 35.5594 24.2014 35.8966 20.3906ZM11.7309 9.84375C11.8433 9.84365 11.9541 9.81659 12.0539 9.76486C12.1537 9.71312 12.2396 9.63821 12.3045 9.54641C12.3694 9.45461 12.4113 9.34859 12.4267 9.23725C12.4422 9.1259 12.4307 9.01248 12.3933 8.90648C12.3138 8.69506 12.2872 8.46744 12.3157 8.24338C12.3442 8.01933 12.4269 7.80561 12.5568 7.62081C12.6866 7.43601 12.8596 7.28571 13.0608 7.18297C13.2619 7.08022 13.4851 7.02814 13.7109 7.03125H22.5197C22.8806 7.03081 23.2376 6.95669 23.5688 6.81345C23.9001 6.67021 24.1986 6.46085 24.4461 6.19821C24.6936 5.93556 24.8849 5.62515 25.0082 5.28599C25.1316 4.94683 25.1844 4.58606 25.1634 4.22578C25.8906 4.27729 26.5695 4.60917 27.0567 5.15144C27.544 5.69371 27.8017 6.404 27.7754 7.13256C27.7491 7.86112 27.441 8.55102 26.916 9.05681C26.3909 9.56259 25.69 9.84473 24.9609 9.84375H23.5547C23.3682 9.84375 23.1894 9.91783 23.0575 10.0497C22.9256 10.1816 22.8516 10.3604 22.8516 10.5469C22.8516 10.7334 22.9256 10.9122 23.0575 11.0441C23.1894 11.1759 23.3682 11.25 23.5547 11.25H24.9609C25.5532 11.2496 26.1387 11.1241 26.6791 10.8817C27.2195 10.6394 27.7026 10.2857 28.0969 9.84375H31.2891C31.662 9.84375 32.0197 9.99191 32.2834 10.2556C32.5472 10.5194 32.6953 10.877 32.6953 11.25C32.6953 11.623 32.5472 11.9806 32.2834 12.2444C32.0197 12.5081 31.662 12.6562 31.2891 12.6562H8.78906C8.4161 12.6562 8.05842 12.5081 7.79469 12.2444C7.53097 11.9806 7.38281 11.623 7.38281 11.25C7.38281 10.877 7.53097 10.5194 7.79469 10.2556C8.05842 9.99191 8.4161 9.84375 8.78906 9.84375H11.7309ZM8.78906 5.625V8.4375C8.29388 8.44041 7.80845 8.57537 7.38281 8.82844V5.625H8.78906ZM5.97656 2.94187V1.47656C6.65158 1.61571 7.27104 1.94959 7.75838 2.43693C8.24573 2.92428 8.5796 3.54373 8.71875 4.21875H7.25344C7.14839 3.92467 6.97936 3.65758 6.75854 3.43677C6.53773 3.21595 6.27064 3.04692 5.97656 2.94187ZM29.4729 41.6194C29.2471 42.2029 28.8494 42.7041 28.3325 43.0566C27.8156 43.4092 27.2038 43.5965 26.5781 43.5937H13.5C12.8746 43.5962 12.2631 43.4088 11.7465 43.0562C11.2299 42.7037 10.8324 42.2027 10.6066 41.6194C7.161 32.8365 5.35343 23.4967 5.27344 14.0625H34.8047C34.7251 23.4966 32.918 32.8364 29.4729 41.6194ZM34.3638 34.5769L33.2065 34.9383C33.3591 34.4025 33.5074 33.8653 33.648 33.3267L33.9441 33.2346C36.2357 32.5265 38.2394 31.1012 39.6602 29.1687C41.0809 27.2362 41.8436 24.8986 41.8359 22.5C41.8348 21.5679 41.4641 20.6744 40.805 20.0153C40.1459 19.3562 39.2524 18.9855 38.3203 18.9844H36.0112C36.0443 18.5161 36.0703 18.0471 36.0949 17.5781H38.3203C39.6252 17.5796 40.8763 18.0986 41.799 19.0214C42.7217 19.9441 43.2407 21.1951 43.2422 22.5C43.2507 25.1984 42.3926 27.8282 40.7943 30.0023C39.196 32.1764 36.9419 33.78 34.3638 34.5769Z" fill="#FFD0A1"/>
<path d="M26.3925 28.17C26.5723 28.2172 26.7635 28.1913 26.9243 28.0979C27.085 28.0045 27.2022 27.8513 27.2503 27.6717C27.2984 27.4921 27.2733 27.3008 27.1807 27.1396C27.0881 26.9784 26.9354 26.8605 26.756 26.8116L25.5143 26.479L26.4804 25.9214C26.6419 25.8282 26.7597 25.6746 26.808 25.4945C26.8562 25.3143 26.831 25.1224 26.7377 24.9609C26.6445 24.7994 26.4909 24.6816 26.3108 24.6334C26.1307 24.5851 25.9387 24.6104 25.7773 24.7036L24.8119 25.2612L25.1444 24.0195C25.1712 23.9294 25.1797 23.8349 25.1693 23.7416C25.159 23.6482 25.13 23.5579 25.0842 23.4759C25.0384 23.3939 24.9766 23.3219 24.9024 23.2642C24.8283 23.2065 24.7434 23.1642 24.6527 23.1399C24.5619 23.1156 24.4673 23.1096 24.3742 23.1225C24.2812 23.1354 24.1916 23.1667 24.1109 23.2148C24.0302 23.2628 23.9599 23.3265 23.9042 23.4022C23.8485 23.4778 23.8086 23.5639 23.7867 23.6552L23.0899 26.2568L20.7422 27.6103V24.9005L22.6455 22.9971C22.7736 22.8645 22.8445 22.6869 22.8429 22.5025C22.8413 22.3182 22.7673 22.1418 22.637 22.0115C22.5066 21.8811 22.3303 21.8071 22.1459 21.8055C21.9615 21.8039 21.7839 21.8748 21.6513 22.0029L20.7422 22.912V21.7969C20.7422 21.6104 20.6681 21.4316 20.5362 21.2997C20.4044 21.1678 20.2255 21.0938 20.0391 21.0938C19.8526 21.0938 19.6737 21.1678 19.5419 21.2997C19.41 21.4316 19.3359 21.6104 19.3359 21.7969V22.912L18.4268 22.0029C18.2942 21.8748 18.1166 21.8039 17.9322 21.8055C17.7478 21.8071 17.5715 21.8811 17.4411 22.0115C17.3108 22.1418 17.2368 22.3182 17.2352 22.5025C17.2336 22.6869 17.3045 22.8645 17.4326 22.9971L19.3359 24.9005V27.6103L16.9889 26.2554L16.2921 23.6538C16.2702 23.5625 16.2303 23.4764 16.1746 23.4008C16.1189 23.3251 16.0486 23.2614 15.9679 23.2134C15.8872 23.1653 15.7976 23.134 15.7046 23.1211C15.6115 23.1082 15.5169 23.1142 15.4261 23.1385C15.3354 23.1628 15.2505 23.2051 15.1764 23.2628C15.1022 23.3205 15.0404 23.3925 14.9946 23.4745C14.9488 23.5565 14.9198 23.6468 14.9095 23.7402C14.8991 23.8335 14.9076 23.928 14.9344 24.018L15.2669 25.2598L14.3016 24.7022C14.1401 24.609 13.9481 24.5837 13.768 24.6319C13.5879 24.6802 13.4343 24.798 13.3411 24.9595C13.2478 25.121 13.2226 25.3129 13.2708 25.4931C13.3191 25.6732 13.4369 25.8268 13.5984 25.92L14.5645 26.4776L13.3228 26.8102C13.1434 26.8591 12.9907 26.977 12.8981 27.1382C12.8055 27.2994 12.7804 27.4907 12.8285 27.6703C12.8766 27.8499 12.9938 28.0031 13.1545 28.0965C13.3153 28.1899 13.5065 28.2158 13.6863 28.1686L16.2879 27.4718L18.6328 28.8281L16.2858 30.183L13.6842 29.4863C13.5044 29.439 13.3132 29.4649 13.1524 29.5583C12.9917 29.6517 12.8744 29.805 12.8264 29.9846C12.7783 30.1642 12.8034 30.3555 12.896 30.5167C12.9886 30.6778 13.1413 30.7958 13.3207 30.8447L14.5624 31.1773L13.5963 31.7348C13.4348 31.8281 13.317 31.9817 13.2687 32.1618C13.2205 32.3419 13.2457 32.5338 13.339 32.6953C13.4322 32.8568 13.5858 32.9746 13.7659 33.0229C13.946 33.0712 14.1379 33.0459 14.2994 32.9527L15.2648 32.3951L14.9323 33.6368C14.9055 33.7268 14.897 33.8213 14.9074 33.9147C14.9177 34.008 14.9466 34.0984 14.9925 34.1804C15.0383 34.2624 15.1001 34.3343 15.1743 34.392C15.2484 34.4497 15.3333 34.492 15.424 34.5164C15.5148 34.5407 15.6094 34.5466 15.7025 34.5337C15.7955 34.5209 15.8851 34.4895 15.9658 34.4415C16.0465 34.3934 16.1168 34.3297 16.1725 34.2541C16.2281 34.1784 16.2681 34.0924 16.29 34.001L16.9868 31.3995L19.3359 30.0459V32.7558L17.4326 34.6591C17.3045 34.7918 17.2336 34.9694 17.2352 35.1537C17.2368 35.3381 17.3108 35.5144 17.4411 35.6448C17.5715 35.7752 17.7478 35.8491 17.9322 35.8507C18.1166 35.8523 18.2942 35.7814 18.4268 35.6534L19.3359 34.7442V35.8594C19.3359 36.0459 19.41 36.2247 19.5419 36.3566C19.6737 36.4884 19.8526 36.5625 20.0391 36.5625C20.2255 36.5625 20.4044 36.4884 20.5362 36.3566C20.6681 36.2247 20.7422 36.0459 20.7422 35.8594V34.7442L21.6513 35.6534C21.7839 35.7814 21.9615 35.8523 22.1459 35.8507C22.3303 35.8491 22.5066 35.7752 22.637 35.6448C22.7673 35.5144 22.8413 35.3381 22.8429 35.1537C22.8445 34.9694 22.7736 34.7918 22.6455 34.6591L20.7422 32.7558V30.0459L23.0892 31.4009L23.786 34.0024C23.8079 34.0938 23.8478 34.1798 23.9035 34.2555C23.9592 34.3311 24.0295 34.3948 24.1102 34.4429C24.1909 34.4909 24.2805 34.5223 24.3735 34.5351C24.4666 34.548 24.5612 34.5421 24.652 34.5178C24.7427 34.4934 24.8276 34.4512 24.9017 34.3934C24.9759 34.3357 25.0377 34.2638 25.0835 34.1818C25.1293 34.0998 25.1583 34.0094 25.1686 33.9161C25.179 33.8227 25.1705 33.7282 25.1437 33.6382L24.8112 32.3965L25.7766 32.9541C25.938 33.0473 26.13 33.0726 26.3101 33.0243C26.4902 32.976 26.6438 32.8582 26.737 32.6967C26.8303 32.5352 26.8555 32.3433 26.8073 32.1632C26.759 31.9831 26.6412 31.8295 26.4797 31.7363L25.5136 31.1787L26.7553 30.8461C26.9347 30.7972 27.0874 30.6793 27.18 30.5181C27.2726 30.3569 27.2977 30.1656 27.2496 29.986C27.2015 29.8064 27.0843 29.6531 26.9236 29.5597C26.7628 29.4664 26.5716 29.4404 26.3918 29.4877L23.7902 30.1845L21.4453 28.8281L23.7923 27.4732L26.3925 28.17Z" fill="#FFD0A1"/>
</g>
<defs>
<clipPath id="clip0_116_18">
<rect width="45" height="45" fill="white"/>
</clipPath>
</defs>
</svg>
