<svg width="43" height="46" viewBox="0 0 43 46" fill="none" xmlns="http://www.w3.org/2000/svg">
<path d="M9.22645 21.2054C8.76344 21.2054 8.3877 21.6074 8.3877 22.1027C8.3877 22.598 8.76344 22.9999 9.22645 22.9999C9.68945 22.9999 10.0652 22.598 10.0652 22.1027C10.0652 21.6074 9.68945 21.2054 9.22645 21.2054Z" fill="#FFD0A1"/>
<path d="M31.4535 35.1938C34.3647 36.3664 37.8208 35.0457 40.142 32.5627C43.3558 29.1237 44.0113 24.0122 41.328 21.1416C40.0412 19.7652 38.2219 19.1576 36.2235 19.4048C36.231 19.1082 36.2356 18.8107 36.2356 18.5135C36.2356 18.018 35.86 17.6163 35.3968 17.6163H0.83875C0.375493 17.6163 0 18.018 0 18.5135C0 26.7485 2.98488 34.8821 8.49341 39.1516H0.83875C0.375493 39.1516 0 39.5533 0 40.0489C0 40.5444 0.375493 40.9461 0.83875 40.9461H2.02074C3.26514 43.1735 5.48938 44.5354 7.94499 44.5354H28.2906C30.6855 44.5354 32.9499 43.2019 34.2142 40.9461H35.3967C35.8598 40.9461 36.2354 40.5444 36.2354 40.0489C36.2354 39.5533 35.8598 39.1516 35.3967 39.1516H27.7493C29.1027 38.1045 30.3522 36.7717 31.4535 35.1938ZM36.128 21.2309C37.7295 20.9543 39.1694 21.3704 40.1418 22.4105C42.1037 24.5093 41.5716 28.4944 38.9557 31.2935C37.0544 33.3274 34.4596 34.2249 32.4384 33.6468C32.7454 33.1185 33.0369 32.5693 33.311 32.0026C34.896 32.1996 36.6035 31.2719 37.7689 30.0252C39.7566 27.8999 40.1857 24.9957 38.9573 23.6814C38.195 22.8624 36.9691 22.8172 35.9271 23.1056C36.0114 22.4853 36.0783 21.8592 36.128 21.2309ZM35.5827 25.1538C36.6178 24.6091 37.5068 24.6667 37.7696 24.9489C38.1606 25.3673 38.069 27.1669 36.5827 28.7561C35.8441 29.5461 34.9242 30.076 34.1004 30.2036C34.7302 28.6109 35.2271 26.9187 35.5827 25.1538ZM32.1286 40.9461C31.1566 42.0692 29.7754 42.7408 28.2906 42.7408H7.94499C6.45435 42.7408 5.07634 42.078 4.1028 40.9461C4.258 40.9461 31.5157 40.9461 32.1286 40.9461ZM24.372 39.1515H11.8645C6.82825 36.8761 3.07533 30.5646 1.99505 23.0001H5.90585C6.36911 23.0001 6.7446 22.5984 6.7446 22.1028C6.7446 21.6072 6.36911 21.2055 5.90585 21.2055H1.79122C1.74116 20.6129 1.7069 20.0145 1.6901 19.4109H34.5453C34.5359 19.7545 34.5216 20.0966 34.5017 20.434C34.5016 20.4355 34.5016 20.4369 34.5015 20.4383C34.5014 20.4403 34.5011 20.4424 34.5011 20.4444C34.486 20.6984 34.4671 20.9522 34.446 21.2055H12.6867C12.2234 21.2055 11.8479 21.6072 11.8479 22.1028C11.8479 22.5984 12.2234 23.0001 12.6867 23.0001H34.2459C34.1803 23.4657 34.105 23.928 34.0192 24.3847C32.8694 30.5075 29.6062 36.7849 24.372 39.1515Z" fill="#FFD0A1"/>
<path d="M22.9009 26.0432C22.8971 26.0383 22.893 26.0339 22.889 26.0293C22.8801 26.0196 22.8721 26.0093 22.8631 25.9997C22.863 25.9996 22.8628 25.9995 22.8628 25.9995C22.8591 25.9955 22.855 25.9919 22.8513 25.988C22.8449 25.9814 22.8385 25.9749 22.8319 25.9686C21.8439 24.9345 20.421 24.5214 18.8185 24.8069C17.3033 25.0769 15.7904 25.9511 14.5586 27.2684C13.3273 28.5861 12.5103 30.2044 12.2578 31.8254C11.9918 33.5328 12.3741 35.0495 13.3328 36.1062C13.3344 36.1081 13.336 36.1099 13.3376 36.1118C13.3496 36.125 13.3607 36.139 13.3727 36.152C14.1592 36.9928 15.2281 37.4329 16.447 37.4329C16.7611 37.4329 17.0852 37.4036 17.4168 37.3445C18.9321 37.0744 20.445 36.2002 21.6769 34.8829C22.9081 33.5653 23.7251 31.9469 23.9776 30.326C24.2438 28.6174 23.8608 27.0997 22.9009 26.0432ZM14.2212 34.4116C13.401 32.9173 14.015 30.3888 15.745 28.5375C16.9645 27.2333 18.4983 26.5215 19.7869 26.5215C19.9901 26.5215 20.1871 26.54 20.3759 26.5758C18.8201 27.4617 17.6827 29.0418 17.2993 30.8802C17.1534 31.5794 16.8477 32.248 16.4159 32.8126C15.9815 33.3789 15.4254 33.8345 14.8071 34.1305L14.2212 34.4116ZM20.4909 33.614C19.0791 35.1235 17.2465 35.8382 15.8606 35.5751C16.5668 35.1725 17.2018 34.6172 17.7136 33.95C18.311 33.1686 18.734 32.2423 18.9365 31.2712C19.2348 29.8414 20.1666 28.6262 21.4287 28.0209L22.0147 27.7399C22.8347 29.2342 22.2207 31.7627 20.4909 33.614Z" fill="#FFD0A1"/>
<path d="M18.9568 10.4377C18.9568 9.28083 19.6251 8.28833 19.6296 8.28168C19.6706 8.22274 20.6344 6.81777 20.6344 5.05387C20.6344 3.28997 19.6706 1.885 19.6296 1.82606C19.353 1.42859 18.8275 1.34629 18.4559 1.64224C18.0844 1.93827 18.0074 2.50034 18.2841 2.8978C18.2909 2.90751 18.9569 3.89677 18.9569 5.05387C18.9569 6.21079 18.2886 7.20329 18.2841 7.20994C18.2431 7.26878 17.2793 8.67385 17.2793 10.4377C17.2793 12.2016 18.2431 13.6066 18.2841 13.6656C18.5609 14.0631 19.0863 14.1452 19.4578 13.8494C19.8293 13.5533 19.9062 12.9913 19.6296 12.5938C19.6228 12.5841 18.9568 11.5948 18.9568 10.4377Z" fill="#FFD0A1"/>
<path d="M25.6667 10.4377C25.6667 9.28083 26.335 8.28833 26.3395 8.28168C26.3805 8.22275 27.3443 6.81777 27.3443 5.05387C27.3443 3.28997 26.3805 1.885 26.3396 1.82606C26.0629 1.42869 25.5374 1.3463 25.1659 1.64224C24.7943 1.93828 24.7174 2.50034 24.9941 2.89781C25.0008 2.90751 25.6668 3.89678 25.6668 5.05387C25.6668 6.21079 24.9985 7.20329 24.994 7.20994C24.9531 7.26879 23.9893 8.67385 23.9893 10.4377C23.9893 12.2016 24.9531 13.6066 24.994 13.6656C25.2708 14.0631 25.7962 14.1452 26.1677 13.8494C26.5393 13.5533 26.6162 12.9913 26.3395 12.5938C26.3328 12.5841 25.6667 11.5948 25.6667 10.4377Z" fill="#FFD0A1"/>
<path d="M12.2463 10.4377C12.2463 9.28083 12.9146 8.28833 12.9191 8.28168C12.9601 8.22274 13.9239 6.81777 13.9239 5.05387C13.9239 3.28997 12.9601 1.885 12.9191 1.82606C12.6424 1.42859 12.117 1.34629 11.7455 1.64224C11.3739 1.93827 11.297 2.50034 11.5736 2.8978C11.5804 2.90751 12.2464 3.89677 12.2464 5.05387C12.2464 6.21079 11.5782 7.20329 11.5736 7.20994C11.5327 7.26878 10.5688 8.67385 10.5688 10.4377C10.5688 12.2016 11.5327 13.6066 11.5736 13.6656C11.8504 14.0631 12.3759 14.1452 12.7473 13.8494C13.1189 13.5533 13.1958 12.9913 12.9191 12.5938C12.9123 12.5841 12.2463 11.5948 12.2463 10.4377Z" fill="#FFD0A1"/>
</svg>
