<svg width="42" height="44" viewBox="0 0 42 44" fill="none" xmlns="http://www.w3.org/2000/svg">
<g clip-path="url(#clip0_120_119)">
<path d="M41.3438 11.9973H36.6424C35.9982 11.9995 35.3736 12.2291 34.8692 12.6488C34.3649 13.0686 34.0102 13.6542 33.8625 14.311H26.4443V11.6325H31.5324C31.7064 11.6325 31.8733 11.5601 31.9964 11.4311C32.1195 11.3022 32.1886 11.1273 32.1886 10.945V0.6875C32.1886 0.505164 32.1195 0.330295 31.9964 0.201364C31.8733 0.0724328 31.7064 0 31.5324 0L0.65625 0C0.482202 0 0.315282 0.0724328 0.192211 0.201364C0.0691404 0.330295 0 0.505164 0 0.6875L0 43.3125C0 43.4948 0.0691404 43.6697 0.192211 43.7986C0.315282 43.9276 0.482202 44 0.65625 44H31.5324C31.7064 44 31.8733 43.9276 31.9964 43.7986C32.1195 43.6697 32.1886 43.4948 32.1886 43.3125V39.061C32.1886 38.8787 32.1195 38.7038 31.9964 38.5749C31.8733 38.4459 31.7064 38.3735 31.5324 38.3735H25.7049C26.8479 37.558 27.7544 36.4282 28.3246 35.1083C31.1771 35.0662 33.4163 33.3162 33.6131 30.8917C33.7185 30.2985 33.6659 29.6865 33.461 29.1226C33.2562 28.5588 32.9071 28.0649 32.452 27.6952C32 27.4323 31.4955 27.2838 30.9789 27.2617C30.4623 27.2395 29.948 27.3444 29.477 27.5678C29.4717 27.4181 29.4187 27.2745 29.3265 27.1599C29.265 27.0878 29.1896 27.0301 29.1053 26.9906C29.021 26.9511 28.9297 26.9307 28.8374 26.9307H14.0875C13.9951 26.9305 13.9037 26.9508 13.8193 26.9902C13.7349 27.0295 13.6594 27.0872 13.5978 27.1593C13.5361 27.2314 13.4897 27.3163 13.4617 27.4085C13.4336 27.5008 13.4244 27.5982 13.4347 27.6943L13.9764 32.736C14.097 33.8656 14.4497 34.9544 15.0102 35.9275C15.5708 36.9007 16.3258 37.7351 17.2235 38.3735H14.476C14.302 38.3735 14.135 38.4459 14.012 38.5749C13.8889 38.7038 13.8197 38.8787 13.8197 39.061C13.8197 39.2433 13.8889 39.4182 14.012 39.5471C14.135 39.6761 14.302 39.7485 14.476 39.7485H30.8761V42.625H10.0013V39.7485H12.3121C12.4862 39.7485 12.6531 39.6761 12.7762 39.5471C12.8992 39.4182 12.9684 39.2433 12.9684 39.061C12.9684 38.8787 12.8992 38.7038 12.7762 38.5749C12.6531 38.4459 12.4862 38.3735 12.3121 38.3735H10.0013V11.6325H16.4859V18.2683C16.4859 18.4506 16.555 18.6255 16.6781 18.7544C16.8012 18.8833 16.9681 18.9558 17.1421 18.9558H19.1039V22.2154C19.1039 22.3978 19.173 22.5726 19.2961 22.7016C19.4192 22.8305 19.5861 22.9029 19.7601 22.9029H23.1726C23.3467 22.9029 23.5136 22.8305 23.6367 22.7016C23.7597 22.5726 23.8289 22.3978 23.8289 22.2154V18.9558H25.7915C25.9655 18.9558 26.1325 18.8833 26.2555 18.7544C26.3786 18.6255 26.4478 18.4506 26.4478 18.2683V15.686H33.8625C34.0104 16.343 34.3654 16.9286 34.8701 17.3482C35.3748 17.7678 35.9998 17.997 36.6441 17.9988H41.3438C41.5178 17.9988 41.6847 17.9263 41.8078 17.7974C41.9309 17.6685 42 17.4936 42 17.3113V12.6848C42 12.5025 41.9309 12.3276 41.8078 12.1987C41.6847 12.0698 41.5178 11.9973 41.3438 11.9973ZM28.9529 32.736L29.3396 29.1234C30.3607 28.6082 31.2279 28.4928 31.7284 28.8393C31.9789 29.0795 32.1642 29.3849 32.2656 29.7244C32.3671 30.0639 32.3809 30.4255 32.3059 30.7725C32.1781 32.351 30.7186 33.5225 28.7814 33.7132C28.8579 33.3915 28.9152 33.0652 28.9529 32.736ZM15.2819 32.5829L14.8225 28.3021H28.1076L27.65 32.582C27.48 34.1755 26.7553 35.6475 25.6145 36.7164C24.4738 37.7854 22.9969 38.3764 21.4664 38.3764C19.9358 38.3764 18.459 37.7854 17.3182 36.7164C16.1774 35.6475 15.4528 34.1755 15.2827 32.582L15.2819 32.5829ZM22.5129 21.5279H20.4129V18.9558H22.5129V21.5279ZM25.1318 17.5808H17.7984V11.6325H25.1318V17.5808ZM10.0013 10.2575V8.92833C10.0013 8.746 9.93211 8.57113 9.80904 8.4422C9.68597 8.31327 9.51905 8.24083 9.345 8.24083C9.17095 8.24083 9.00403 8.31327 8.88096 8.4422C8.75789 8.57113 8.68875 8.746 8.68875 8.92833V42.625H1.3125V1.375H8.68875V6.74392C8.68875 6.92625 8.75789 7.10112 8.88096 7.23005C9.00403 7.35898 9.17095 7.43142 9.345 7.43142C9.51905 7.43142 9.68597 7.35898 9.80904 7.23005C9.93211 7.10112 10.0013 6.92625 10.0013 6.74392V1.375H30.8761V10.2575H10.0013ZM40.6875 16.6238H36.6424C36.2372 16.6137 35.8518 16.438 35.5687 16.1342C35.2855 15.8304 35.127 15.4226 35.127 14.998C35.127 14.5734 35.2855 14.1657 35.5687 13.8619C35.8518 13.5581 36.2372 13.3824 36.6424 13.3723H40.6875V16.6238Z" fill="#FFD0A1"/>
<path d="M25.7879 2.76099C25.2515 2.76099 24.727 2.92765 24.281 3.23989C23.8349 3.55214 23.4872 3.99595 23.2819 4.51519C23.0766 5.03444 23.0229 5.60581 23.1276 6.15703C23.2322 6.70826 23.4906 7.2146 23.8699 7.61201C24.2493 8.00943 24.7326 8.28007 25.2588 8.38972C25.7849 8.49936 26.3303 8.44309 26.826 8.22801C27.3216 8.01293 27.7452 7.64871 28.0433 7.1814C28.3414 6.71409 28.5004 6.16468 28.5004 5.60265C28.5004 4.849 28.2147 4.12621 27.706 3.59329C27.1973 3.06038 26.5073 2.76099 25.7879 2.76099ZM25.7879 7.06932C25.511 7.06932 25.2404 6.9833 25.0101 6.82214C24.7799 6.66098 24.6005 6.43192 24.4945 6.16392C24.3885 5.89592 24.3608 5.60103 24.4148 5.31652C24.4689 5.03202 24.6022 4.77068 24.798 4.56556C24.9938 4.36045 25.2432 4.22076 25.5148 4.16417C25.7864 4.10758 26.0679 4.13662 26.3237 4.24763C26.5795 4.35864 26.7982 4.54662 26.952 4.78782C27.1058 5.02901 27.1879 5.31257 27.1879 5.60265C27.1879 5.99164 27.0404 6.36469 26.7779 6.63974C26.5153 6.9148 26.1592 7.06932 25.7879 7.06932Z" fill="#FFD0A1"/>
</g>
<defs>
<clipPath id="clip0_120_119">
<rect width="42" height="44" fill="white"/>
</clipPath>
</defs>
</svg>
