<svg width="43" height="43" viewBox="0 0 43 43" fill="none" xmlns="http://www.w3.org/2000/svg">
<path d="M21.9442 4.51584C20.6794 5.26414 20.2318 7.07064 20.9658 8.46059L21.8384 10.1126C21.9585 10.341 22.192 10.4712 22.433 10.4712C22.5388 10.4712 22.6463 10.446 22.7463 10.3931C23.0747 10.2201 23.1998 9.81357 23.0268 9.4852L22.1542 7.83322C21.7578 7.08324 21.9837 6.05359 22.6279 5.6723C23.2662 5.29437 23.7272 4.62166 23.8927 3.82633C24.0724 2.96129 23.891 2.07273 23.3955 1.38826L22.5909 0.277987C22.3734 -0.0226773 21.9535 -0.0898648 21.6528 0.127655C21.3521 0.345174 21.285 0.765096 21.5025 1.06576L22.3071 2.17603C22.5775 2.54976 22.6783 3.06375 22.5766 3.55254C22.4885 3.97918 22.2575 4.33023 21.9442 4.51584Z" fill="#FFD0A1"/>
<path d="M28.2186 4.51584C26.9538 5.26414 26.5062 7.07064 27.2411 8.46059L28.1137 10.1126C28.2338 10.341 28.4672 10.4712 28.7083 10.4712C28.8141 10.4712 28.9216 10.446 29.0215 10.3931C29.3499 10.2201 29.475 9.81357 29.302 9.4852L28.4286 7.83322C28.0322 7.08324 28.2581 6.05359 28.9023 5.6723C29.5406 5.29437 30.0016 4.62166 30.1671 3.82633C30.3468 2.96129 30.1654 2.07273 29.6699 1.38826L28.8653 0.277987C28.6478 -0.0226773 28.2279 -0.0898648 27.9272 0.127655C27.6266 0.345174 27.5594 0.765096 27.7769 1.06576L28.5815 2.17603C28.8519 2.54976 28.9527 3.06375 28.851 3.55254C28.7629 3.97918 28.5327 4.33023 28.2186 4.51584Z" fill="#FFD0A1"/>
<path d="M9.39369 4.51584C8.12889 5.26414 7.68125 7.07064 8.41611 8.46059L9.28871 10.1126C9.40881 10.341 9.64228 10.4712 9.88332 10.4712C9.98914 10.4712 10.0966 10.446 10.1966 10.3931C10.525 10.2201 10.6501 9.81357 10.4771 9.4852L9.60449 7.83322C9.20809 7.08324 9.434 6.05359 10.0782 5.6723C10.7164 5.29437 11.1775 4.62166 11.343 3.82633C11.5227 2.96129 11.3413 2.07273 10.8458 1.38826L10.0412 0.277987C9.82369 -0.0226773 9.40377 -0.0898648 9.1031 0.127655C8.80244 0.345174 8.73525 0.765096 8.95277 1.06576L9.75734 2.17603C10.0278 2.54976 10.1286 3.06375 10.0269 3.55254C9.93875 3.97918 9.70779 4.33023 9.39369 4.51584Z" fill="#FFD0A1"/>
<path d="M15.6691 4.51584C14.4043 5.26414 13.9566 7.07064 14.6915 8.46059L15.5641 10.1126C15.6842 10.341 15.9177 10.4712 16.1587 10.4712C16.2645 10.4712 16.372 10.446 16.472 10.3931C16.8004 10.2201 16.9255 9.81357 16.7525 9.4852L15.8799 7.83322C15.4835 7.08324 15.7094 6.05359 16.3536 5.6723C16.9918 5.29437 17.4529 4.62166 17.6184 3.82633C17.7981 2.96129 17.6167 2.07273 17.1212 1.38826L16.3166 0.277987C16.0991 -0.0226773 15.6792 -0.0898648 15.3785 0.127655C15.0778 0.345174 15.0106 0.765096 15.2282 1.06576L16.0327 2.17603C16.3032 2.54976 16.4039 3.06375 16.3023 3.55254C16.2133 3.97918 15.9823 4.33023 15.6691 4.51584Z" fill="#FFD0A1"/>
<path d="M38.0617 15.3515H35.8613V15.1088C35.8613 13.8163 34.8098 12.7656 33.5182 12.7656H4.77871C3.48703 12.7656 2.43555 13.8171 2.43555 15.1088V26.7667C2.43555 30.1563 4.24961 33.131 6.95811 34.7695H2.01562C0.904512 34.7695 0 35.674 0 36.7852V38.1289C0 39.24 0.904512 40.1445 2.01562 40.1445H3.59453C3.90695 41.6764 5.26414 42.832 6.88672 42.832H31.4102C31.6504 42.832 31.8838 42.8052 32.1097 42.7573C36.2267 42.2744 39.4323 38.7647 39.4323 34.5201V31.4933C39.4323 31.2615 39.3148 31.0566 39.1359 30.9365C41.3816 29.2047 42.832 26.4887 42.832 23.4392V20.1218C42.832 17.4923 40.6921 15.3515 38.0617 15.3515ZM35.8613 26.7667V19.3828H38.0617C38.469 19.3828 38.8008 19.7145 38.8008 20.1227V23.44C38.8008 25.59 37.5536 27.4553 35.7286 28.3346C35.8151 27.824 35.8613 27.3008 35.8613 26.7667ZM11.9275 17.3814L14.8132 19.7036C14.8997 19.7733 14.9492 19.8766 14.9492 19.9874V24.6629C14.9492 24.8636 14.7854 25.0273 14.5847 25.0273H8.81332C8.6126 25.0273 8.44883 24.8636 8.44883 24.6629V19.9874C8.44883 19.8766 8.49838 19.7733 8.58488 19.7036L11.4706 17.3814C11.6033 17.2747 11.7948 17.2747 11.9275 17.3814ZM3.7793 26.7667V15.1088C3.7793 14.5579 4.22777 14.1094 4.77871 14.1094H11.0271V16.0964C10.8861 16.1561 10.7517 16.235 10.6282 16.3341L7.74252 18.6563C7.33772 18.9821 7.10508 19.4676 7.10508 19.9874V24.6629C7.10508 25.6052 7.87102 26.3711 8.81332 26.3711H14.5847C15.527 26.3711 16.293 25.6052 16.293 24.6629V19.9874C16.293 19.4676 16.0603 18.9821 15.6555 18.6563L12.7698 16.3341C12.6464 16.235 12.512 16.1561 12.3709 16.0964V14.1094H33.5182C34.0691 14.1094 34.5176 14.5579 34.5176 15.1088V26.7667C34.5176 28.4867 33.9717 30.0807 33.0445 31.3866C31.558 31.967 30.2797 32.9647 29.3517 34.2354C28.3624 32.6346 26.8271 31.3589 24.9047 30.724L23.7793 30.352C23.6105 30.2957 23.4258 30.31 23.2662 30.3897C23.1075 30.4695 22.9865 30.6098 22.9303 30.7794L22.6413 31.6529C22.3046 32.6733 22.1702 33.7281 22.2349 34.7695H11.7822C7.36963 34.7695 3.7793 31.1792 3.7793 26.7667ZM4.19922 38.8008H2.01562C1.64525 38.8008 1.34375 38.4993 1.34375 38.1289V36.7852C1.34375 36.4148 1.64525 36.1133 2.01562 36.1133H11.7822H22.4322C22.5809 36.7541 22.8068 37.3814 23.11 37.9845C23.2528 38.2675 23.4115 38.5396 23.582 38.8008H4.19922ZM6.88672 41.4883C6.01076 41.4883 5.2633 40.9264 4.98615 40.1445H24.6754C25.2037 40.6703 25.8008 41.1221 26.4559 41.4883H6.88672ZM27.7594 39.1166V40.6342C26.2628 39.99 25.0517 38.8529 24.3101 37.3806C23.4753 35.7219 23.3359 33.8381 23.9187 32.0753L23.9969 31.8393L24.484 32.0006C26.34 32.6137 27.7644 33.9398 28.5555 35.5741C28.0457 36.6483 27.7594 37.8492 27.7594 39.1166ZM38.0886 34.5201C38.0886 38.3531 34.9703 41.4706 31.138 41.4706H29.1039V39.1157C29.1039 35.2827 32.2223 32.1652 36.0545 32.1652H38.0886V34.5201ZM41.4883 23.4392C41.4883 26.7104 39.544 29.5365 36.7499 30.8214H36.0545C35.6606 30.8214 35.2734 30.85 34.8938 30.9029C35.05 30.5888 35.1886 30.2646 35.3096 29.932C38.1197 29.0955 40.1454 26.4988 40.1454 23.44V20.1227C40.1454 18.9738 39.2106 18.039 38.0626 18.039H35.8613V16.6953H38.0617C39.9514 16.6953 41.4883 18.233 41.4883 20.1227V23.4392Z" fill="#FFD0A1"/>
</svg>
