<svg width="43" height="43" viewBox="0 0 43 43" fill="none" xmlns="http://www.w3.org/2000/svg">
<path d="M41.6562 12.0938H33.5938V5.10625C33.5938 4.7562 33.8706 4.46259 34.2233 4.43908L39.7266 4.07022C40.4321 4.02923 40.9844 3.44 40.9844 2.72781V1.39078C40.9844 1.01923 40.8285 0.660453 40.5571 0.407156C40.2856 0.153859 39.9181 0.0201562 39.5492 0.0490468L33.329 0.465609C31.2167 0.601328 29.5625 2.36836 29.5625 4.48813V10.0781C29.5625 10.449 29.8635 10.75 30.2344 10.75C30.6052 10.75 30.9062 10.449 30.9062 10.0781V4.48813C30.9062 3.0745 32.0081 1.8967 33.417 1.80533L39.6406 1.39078L39.6426 2.72983L34.1333 3.09936C33.0771 3.16923 32.25 4.05141 32.25 5.10625V12.0938H21.5C20.7589 12.0938 20.1562 12.6964 20.1562 13.4375V14.7813C20.1562 15.5223 20.7589 16.125 21.5 16.125H21.5329L21.7009 19.4844H9.40625C5.24331 19.4844 1.79391 22.6039 1.38339 26.74C1.34644 27.1169 1.47073 27.4938 1.72605 27.7753C1.98136 28.0568 2.34552 28.2188 2.72513 28.2188H2.92333C2.77686 28.5251 2.6875 28.8644 2.6875 29.2266C2.6875 29.6734 2.81986 30.0872 3.03688 30.4433C2.89108 30.4675 2.74259 30.4803 2.59881 30.5092L1.59772 30.7054C0.671875 30.8962 0 31.7186 0 32.6598C0 33.2565 0.264047 33.8155 0.723609 34.1937C1.17511 34.5646 1.76233 34.7144 2.33947 34.6123C2.13858 35.0161 2.01562 35.4649 2.01562 35.9453V36.6172C2.01562 37.3018 2.2528 37.9267 2.63778 38.4339C2.37642 38.534 2.13858 38.6839 1.94306 38.8841C1.55673 39.261 1.34375 39.7676 1.34375 40.3125C1.34375 41.7947 2.54909 43 4.03125 43H26.3711H39.1649C39.8859 43 40.4758 42.4356 40.5073 41.7147L41.6274 16.125H41.6562C42.3973 16.125 43 15.5223 43 14.7813V13.4375C43 12.6964 42.3973 12.0938 41.6562 12.0938ZM2.72042 26.8723C3.06308 23.4269 5.93669 20.8281 9.40625 20.8281H22.8438C24.6403 20.8281 26.3281 21.5269 27.5959 22.7954C27.9157 23.1145 28.212 23.4814 28.4767 23.8845C29.0593 24.7714 29.4228 25.8027 29.5249 26.875L2.72042 26.8723ZM5.03906 30.2344C4.48342 30.2344 4.03125 29.7822 4.03125 29.2266C4.03125 28.6709 4.48342 28.2188 5.03906 28.2188H27.2109C27.7666 28.2188 28.2188 28.6709 28.2188 29.2266C28.2188 29.7822 27.7666 30.2344 27.2109 30.2344H26.8884H5.36156H5.03906ZM1.57689 33.1557C1.48955 33.0838 1.34375 32.9246 1.34375 32.6598C1.34375 32.3481 1.56009 32.0854 1.86244 32.0229L2.86017 31.8274C3.67919 31.6621 4.52105 31.5781 5.36156 31.5781H26.8884C27.729 31.5781 28.5708 31.6621 29.3932 31.8281L30.3808 32.0216C30.6899 32.0847 30.9062 32.3481 30.9062 32.6598C30.9062 33.0623 30.5414 33.3841 30.1309 33.2907L28.3504 32.9346C28.3068 32.9259 28.2631 32.9219 28.2188 32.9219H27.2109H26.2031C26.0634 32.9219 25.927 32.9655 25.8134 33.0468L22.2431 35.5899L22.2035 35.6215C21.7607 35.9393 21.1755 35.9588 20.7173 35.6732L16.4818 33.024C16.3743 32.9575 16.2513 32.9219 16.125 32.9219H5.03906H4.03125C3.98691 32.9219 3.94323 32.9259 3.89956 32.9353L2.12111 33.2907C1.92828 33.3297 1.72806 33.28 1.57689 33.1557ZM5.03906 38.2969C4.11322 38.2969 3.35938 37.543 3.35938 36.6172V35.9453C3.35938 35.1344 3.93719 34.4558 4.70312 34.2999V34.6016C4.70312 35.5274 5.45697 36.2813 6.38281 36.2813C6.50845 36.2813 6.63006 36.2651 6.74831 36.2383C6.88806 37.025 7.5727 37.625 8.39844 37.625C9.10391 37.625 9.70658 37.1869 9.95517 36.5695C10.9307 37.1063 12.3027 37.0485 13.1741 36.3894C13.332 36.2718 13.5437 36.2718 13.6982 36.3874C14.1813 36.7522 14.8048 36.9531 15.4531 36.9531C16.1048 36.9531 16.7384 36.7448 17.237 36.3659C17.5319 36.1415 17.5897 35.7202 17.3653 35.4246C17.1409 35.1303 16.7203 35.0719 16.424 35.2963C15.8939 35.6994 15.0157 35.6987 14.5044 35.3124C13.8662 34.8367 13.0095 34.8367 12.3672 35.3144C11.8512 35.7041 10.9254 35.6893 10.4275 35.2741C10.2024 35.0867 10.0781 34.8475 10.0781 34.6016V34.2656H15.9322L20.0031 36.812C20.9303 37.3872 22.1013 37.3495 23.0077 36.6978L26.4181 34.2656H27.2109C27.651 34.2656 28.0649 34.4363 28.3753 34.7474C28.3941 34.7662 28.4143 34.7836 28.4351 34.8004C28.5419 34.9113 28.6252 35.0403 28.6958 35.178C28.6353 35.215 28.5748 35.2519 28.5177 35.297C27.9876 35.7001 27.1061 35.6974 26.6015 35.3158C26.3039 35.092 25.884 35.1512 25.6603 35.4475C25.4365 35.7438 25.4956 36.165 25.7919 36.3888C26.275 36.7522 26.8985 36.9531 27.5469 36.9531C28.0179 36.9531 28.4781 36.8409 28.8886 36.6353C28.8792 37.5531 28.1307 38.2969 27.2109 38.2969H5.03906ZM8.73438 35.9453C8.73438 36.1308 8.58387 36.2813 8.39844 36.2813C8.213 36.2813 8.0625 36.1308 8.0625 35.9453V34.6016V34.2656H8.73438V35.9453ZM6.38281 34.9375C6.19737 34.9375 6.04688 34.787 6.04688 34.6016V34.2656H6.71875V34.6016C6.71875 34.787 6.56825 34.9375 6.38281 34.9375ZM4.03125 41.6563C3.29017 41.6563 2.6875 41.0536 2.6875 40.3125C2.6875 40.1331 2.75603 39.9678 2.89309 39.8341C3.0147 39.7092 3.17998 39.6406 3.35938 39.6406H5.03906H27.2109H28.8906C29.2608 39.6406 29.5625 39.9423 29.5625 40.3125C29.5625 40.6706 29.4227 41.0079 29.1681 41.2619C28.9135 41.5158 28.5769 41.6563 28.2188 41.6563H26.3711H4.03125ZM30.5334 41.6563C30.7699 41.2504 30.9062 40.7936 30.9062 40.3125C30.9062 39.4552 30.3667 38.7269 29.6109 38.436C29.9965 37.928 30.2344 37.3025 30.2344 36.6172V35.9453C30.2344 35.7888 30.2236 35.6322 30.2008 35.5153C30.1726 35.3151 30.1195 35.1236 30.0543 34.9375H39.4592L39.1649 41.6563H30.5334ZM39.9887 22.8438H31.5781C31.2073 22.8438 30.9062 23.1448 30.9062 23.5156C30.9062 23.8865 31.2073 24.1875 31.5781 24.1875H39.9295L39.5177 33.5938H32.0061C32.1566 33.3143 32.25 32.9991 32.25 32.6598C32.25 31.7186 31.5781 30.8962 30.6456 30.704L29.6545 30.5098C29.5088 30.4803 29.3596 30.4682 29.2125 30.4433C29.4301 30.0872 29.5625 29.6734 29.5625 29.2266C29.5625 28.8644 29.4731 28.5251 29.3267 28.2188H29.5249C29.9038 28.2188 30.2673 28.0575 30.5219 27.776C30.7779 27.4931 30.9029 27.1128 30.8653 26.7339C30.7383 25.4553 30.3009 24.2144 29.5995 23.1474C29.2843 22.6677 28.9296 22.229 28.5453 21.8453C27.0719 20.3713 25.1248 19.5462 23.046 19.4951L22.878 16.125H40.2823L39.9887 22.8438ZM41.6562 14.7813H21.5V13.4375H41.6562V14.7813Z" fill="#FFD0A1"/>
<path d="M14.1094 21.5H13.4375C13.0666 21.5 12.7656 21.801 12.7656 22.1719C12.7656 22.5428 13.0666 22.8438 13.4375 22.8438H14.1094C14.4803 22.8438 14.7812 22.5428 14.7812 22.1719C14.7812 21.801 14.4803 21.5 14.1094 21.5Z" fill="#FFD0A1"/>
<path d="M18.1406 21.5H17.4688C17.0979 21.5 16.7969 21.801 16.7969 22.1719C16.7969 22.5428 17.0979 22.8438 17.4688 22.8438H18.1406C18.5115 22.8438 18.8125 22.5428 18.8125 22.1719C18.8125 21.801 18.5115 21.5 18.1406 21.5Z" fill="#FFD0A1"/>
<path d="M22.1719 22.1719H21.5C21.1291 22.1719 20.8281 22.4729 20.8281 22.8438C20.8281 23.2146 21.1291 23.5156 21.5 23.5156H22.1719C22.5428 23.5156 22.8438 23.2146 22.8438 22.8438C22.8438 22.4729 22.5428 22.1719 22.1719 22.1719Z" fill="#FFD0A1"/>
<path d="M11.4219 23.5156H10.75C10.3791 23.5156 10.0781 23.8166 10.0781 24.1875C10.0781 24.5584 10.3791 24.8594 10.75 24.8594H11.4219C11.7928 24.8594 12.0938 24.5584 12.0938 24.1875C12.0938 23.8166 11.7928 23.5156 11.4219 23.5156Z" fill="#FFD0A1"/>
<path d="M16.7969 23.5156H16.125C15.7541 23.5156 15.4531 23.8166 15.4531 24.1875C15.4531 24.5584 15.7541 24.8594 16.125 24.8594H16.7969C17.1678 24.8594 17.4688 24.5584 17.4688 24.1875C17.4688 23.8166 17.1678 23.5156 16.7969 23.5156Z" fill="#FFD0A1"/>
<path d="M9.40625 21.5H8.73438C8.3635 21.5 8.0625 21.801 8.0625 22.1719C8.0625 22.5428 8.3635 22.8438 8.73438 22.8438H9.40625C9.77713 22.8438 10.0781 22.5428 10.0781 22.1719C10.0781 21.801 9.77713 21.5 9.40625 21.5Z" fill="#FFD0A1"/>
</svg>
