<svg width="48" height="48" viewBox="0 0 48 48" fill="none" xmlns="http://www.w3.org/2000/svg">
<g clip-path="url(#clip0_116_8)">
<path d="M46.8006 24.8047C46.7955 20.3896 43.2174 16.8114 38.8023 16.8063H38.7085C37.8919 13.1598 31.5549 10.4077 23.6054 10.4077C15.0837 10.4077 8.40849 13.5695 8.40849 17.6062V29.9158C3.82544 31.8583 1.20996 34.6347 1.20996 37.6021C1.20996 43.4329 11.0478 48 23.6054 48C36.1626 48 46.0008 43.4329 46.0008 37.6021C46.0008 35.5275 44.7706 33.5845 42.4453 31.9161C45.1158 30.55 46.7971 27.8045 46.8006 24.8047ZM38.8023 21.6054C40.5691 21.6054 42.0016 23.0379 42.0016 24.8047C42.0016 26.5715 40.5691 28.004 38.8023 28.004V21.6054ZM35.2604 39.1147L34.9117 39.3232C31.5553 41.3373 27.7147 42.4011 23.8003 42.4011H23.4101C19.4957 42.4011 15.655 41.3373 12.2987 39.3232L11.9499 39.1147C10.7479 38.3883 10.0117 37.0873 10.0082 35.6826V30.8417C10.1695 30.6269 10.2097 30.3446 10.1152 30.0935C10.087 30.0322 10.0511 29.9751 10.0082 29.9236V20.8567C12.4764 23.2156 17.5703 24.8047 23.6054 24.8047C29.6401 24.8047 34.734 23.2156 37.2026 20.8567V35.6826C37.1991 37.0873 36.4629 38.3883 35.2604 39.1147ZM31.3253 22.0381L32.6945 20.6681C33.319 20.0432 33.319 19.0309 32.6945 18.406L31.5635 17.2758C31.2647 16.9747 30.8578 16.8056 30.4333 16.8063C30.0087 16.8052 29.6018 16.9739 29.3023 17.275L26.4751 20.1025C25.8506 20.727 25.8506 21.7397 26.4751 22.3646L27.0933 22.9836C25.9365 23.1316 24.7715 23.2054 23.6054 23.205C16.0682 23.205 11.8773 20.3697 10.9365 19.2059C11.8773 18.042 16.0682 15.2067 23.6054 15.2067C31.1421 15.2067 35.333 18.042 36.2739 19.2059C35.7275 19.8811 34.0829 21.1176 31.3253 22.0381ZM27.6046 21.2336L30.4317 18.406L31.5643 19.5363L28.7352 22.3654L27.6046 21.2336ZM23.6054 12.0073C31.7389 12.0073 37.2026 14.902 37.2026 17.6062C37.1971 17.6839 37.1874 17.7616 37.1737 17.8382C35.3549 15.9936 30.675 13.607 23.6054 13.607C16.5353 13.607 11.8554 15.9936 10.0367 17.8382C10.023 17.7616 10.0132 17.6839 10.0082 17.6062C10.0082 14.902 15.4715 12.0073 23.6054 12.0073ZM44.4011 37.6021C44.4011 42.3714 34.8781 46.4003 23.6054 46.4003C12.3323 46.4003 2.80963 42.3714 2.80963 37.6021C2.80963 35.4299 4.83461 33.3045 8.40849 31.6635V35.6826C8.41474 37.6474 9.44577 39.4665 11.1279 40.4816L11.4774 40.6913C15.0813 42.8553 19.2059 43.9992 23.4101 44.0008H23.8003C28.0045 44.0008 32.1298 42.858 35.7349 40.6952L36.0841 40.4855C37.7665 39.4705 38.7972 37.6513 38.8038 35.6865V32.8031C39.3998 32.8015 39.9938 32.7332 40.5746 32.5992C43.0412 34.0829 44.4011 35.8528 44.4011 37.6021ZM38.8023 31.2034V29.6037C41.4525 29.6037 43.6013 27.4553 43.6013 24.8047C43.6013 22.1545 41.4525 20.0057 38.8023 20.0057V18.406C42.3359 18.406 45.201 21.2711 45.201 24.8047C45.201 28.3387 42.3359 31.2034 38.8023 31.2034Z" fill="#FFD0A1"/>
<path d="M21.2058 16.8063H17.2066C16.3228 16.8063 15.6069 17.5226 15.6069 18.406V20.0057C15.6069 20.8891 16.3228 21.6054 17.2066 21.6054H21.2058C22.0892 21.6054 22.8055 20.8891 22.8055 20.0057V18.406C22.8055 17.5226 22.0892 16.8063 21.2058 16.8063ZM17.2066 20.0057V18.406H21.2058V20.0057H17.2066Z" fill="#FFD0A1"/>
<path d="M14.2414 7.44261C14.0332 7.64335 13.9501 7.94094 14.0231 8.22057C14.0965 8.5002 14.3148 8.71852 14.5945 8.79194C14.8741 8.86497 15.1713 8.7814 15.3724 8.57363L16.9233 7.02277C17.7044 6.24168 17.7044 4.97553 16.9233 4.19444L16.2207 3.49224C16.1457 3.41726 16.1035 3.31533 16.1035 3.2091C16.1035 3.10287 16.1457 3.00094 16.2207 2.92595L17.7719 1.3751C17.9797 1.17436 18.0629 0.876765 17.9899 0.597134C17.9168 0.317504 17.6981 0.0991897 17.4185 0.0261577C17.1389 -0.0472647 16.8417 0.0363119 16.6409 0.244082L15.0901 1.79494C14.3086 2.57603 14.3086 3.84217 15.0901 4.62326L15.7923 5.32546C15.8672 5.40045 15.9098 5.50238 15.9098 5.60861C15.9098 5.71484 15.8672 5.81677 15.7923 5.89175L14.2414 7.44261Z" fill="#FFD0A1"/>
<path d="M21.4401 7.44261C21.232 7.64335 21.1488 7.94094 21.2218 8.22057C21.2952 8.5002 21.5136 8.71852 21.7932 8.79194C22.0728 8.86497 22.37 8.7814 22.5712 8.57363L24.122 7.02277C24.9031 6.24168 24.9031 4.97553 24.122 4.19444L23.4194 3.49224C23.3444 3.41726 23.3023 3.31533 23.3023 3.2091C23.3023 3.10287 23.3444 3.00094 23.4194 2.92595L24.9707 1.3751C25.1784 1.17436 25.2616 0.876765 25.1886 0.597134C25.1156 0.317504 24.8968 0.0991897 24.6172 0.0261577C24.3376 -0.0472647 24.0404 0.0363119 23.8396 0.244082L22.2888 1.79494C21.5073 2.57603 21.5073 3.84217 22.2888 4.62326L22.991 5.32546C23.066 5.40045 23.1085 5.50238 23.1085 5.60861C23.1085 5.71484 23.066 5.81677 22.991 5.89175L21.4401 7.44261Z" fill="#FFD0A1"/>
<path d="M29.4382 7.44261C29.23 7.64335 29.1468 7.94094 29.2199 8.22057C29.2933 8.5002 29.5116 8.71852 29.7912 8.79194C30.0709 8.86497 30.3681 8.7814 30.5692 8.57363L32.1201 7.02277C32.9011 6.24168 32.9011 4.97553 32.1201 4.19444L31.4175 3.49224C31.3425 3.41726 31.3003 3.31533 31.3003 3.2091C31.3003 3.10287 31.3425 3.00094 31.4175 2.92595L32.9687 1.3751C33.1765 1.17436 33.2597 0.876765 33.1866 0.597134C33.1136 0.317504 32.8949 0.0991897 32.6153 0.0261577C32.3356 -0.0472647 32.0384 0.0363119 31.8377 0.244082L30.2868 1.79494C29.5054 2.57603 29.5054 3.84217 30.2868 4.62326L30.989 5.32546C31.064 5.40045 31.1066 5.50238 31.1066 5.60861C31.1066 5.71484 31.064 5.81677 30.989 5.89175L29.4382 7.44261Z" fill="#FFD0A1"/>
<path d="M34.8028 24.0048C34.3611 24.0048 34.0029 24.363 34.0029 24.8047V35.2025C34.0029 35.6442 34.3611 36.0024 34.8028 36.0024C35.2445 36.0024 35.6026 35.6442 35.6026 35.2025V24.8047C35.6026 24.363 35.2445 24.0048 34.8028 24.0048Z" fill="#FFD0A1"/>
<path d="M31.2457 37.686C29.252 38.6803 27.0551 39.199 24.8271 39.2017H22.0054C21.5637 39.2017 21.2056 39.5598 21.2056 40.0016C21.2056 40.4433 21.5637 40.8014 22.0054 40.8014H24.8271C27.3028 40.7994 29.7444 40.2246 31.9608 39.1217C32.356 38.9244 32.5165 38.4437 32.3193 38.0484C32.1217 37.6532 31.6409 37.4927 31.2457 37.6899V37.686Z" fill="#FFD0A1"/>
</g>
<defs>
<clipPath id="clip0_116_8">
<rect width="48" height="48" fill="white"/>
</clipPath>
</defs>
</svg>
