<svg width="27" height="45" viewBox="0 0 27 45" fill="none" xmlns="http://www.w3.org/2000/svg">
<path d="M25.3352 3.04212C24.2591 2.71718 23.1379 3.32366 22.8145 4.38802L21.7249 7.97603C21.3276 7.41128 20.6736 7.03933 19.932 7.03933H19.5182C19.7325 6.69509 19.8473 6.29754 19.8473 5.88175C19.8473 4.67219 18.8631 3.68808 17.6532 3.68808H11.8204C11.0921 3.68808 10.3836 4.03893 9.9531 4.74155C9.59293 3.92482 8.77118 2.06151 8.16745 0.692531C8.05203 0.430637 7.74693 0.312522 7.48403 0.427264L0.533803 3.49233C0.30342 3.5935 0.160692 3.92115 0.267527 4.17009C0.308327 4.26517 4.65735 14.13 4.6893 14.1993C4.0971 14.6605 3.82308 15.3054 3.84254 15.9787C4.10477 25.1344 6.37354 32.7371 9.63705 36.6545C8.96882 36.9819 8.50359 37.6626 8.50359 38.4555C8.50359 39.3479 9.09201 40.0978 9.89826 40.36C9.36908 41.0132 8.86369 41.7648 8.39256 42.6376C7.91221 43.5293 8.56249 44.6166 9.57579 44.6166H19.9046C20.9172 44.6166 21.5686 43.53 21.0879 42.6376C20.6166 41.7649 20.1112 41.0133 19.5821 40.3601C20.3886 40.098 20.9772 39.3481 20.9772 38.4555C20.9772 37.6627 20.5121 36.982 19.844 36.6546C23.1077 32.7372 25.3764 25.1345 25.6382 15.9787C25.6646 15.0662 25.1264 14.1855 24.1612 13.8611L26.6814 5.56248C27.006 4.49212 26.4015 3.36572 25.3352 3.04212ZM11.8204 4.72483H17.6532C18.2914 4.72483 18.8105 5.24389 18.8105 5.88175C18.8105 6.52068 18.2943 7.03933 17.6532 7.03933H15.1832C14.897 7.03933 14.6648 7.27152 14.6648 7.55771C14.6648 7.8439 14.897 8.07609 15.1832 8.07609H17.6532H19.932C20.5702 8.07609 21.0892 8.59515 21.0892 9.233C21.0892 9.8758 20.5679 10.3906 19.932 10.3906C19.6458 10.3906 19.4136 10.6228 19.4136 10.909C19.4136 11.1952 19.6458 11.4274 19.932 11.4274H21.4183C22.0565 11.4274 22.5755 11.9464 22.5755 12.5843C22.5755 13.2085 22.0808 13.7284 21.439 13.7398H8.04242C7.41368 13.7288 6.90525 13.2159 6.90525 12.5843C6.90525 11.948 7.41957 11.4274 8.06251 11.4274H9.5488H15.1153C15.4015 11.4274 15.6337 11.1952 15.6337 10.909C15.6337 10.6228 15.4015 10.3906 15.1153 10.3906H9.5488C8.91061 10.3906 8.39155 9.87153 8.39155 9.233C8.39155 8.5963 8.90643 8.07609 9.5488 8.07609H11.8204C12.1066 8.07609 12.3388 7.8439 12.3388 7.55771C12.3388 7.27152 12.1066 7.03933 11.8204 7.03933C11.1822 7.03933 10.6632 6.52027 10.6632 5.88175C10.6632 5.25131 11.1723 4.72483 11.8204 4.72483ZM13.2934 36.444C12.0402 33.0964 10.8098 25.6797 10.6438 14.7786H18.8371C18.6712 25.6797 17.4408 33.0964 16.1875 36.444H13.2934ZM3.60436 4.60469L2.05487 3.95502L6.86155 1.8353L6.24074 3.44209L3.60436 4.60469ZM9.83347 7.03933H9.54879C9.25348 7.03933 8.96755 7.09776 8.70313 7.20816L7.20755 3.81704L7.77005 2.36116L9.83347 7.03933ZM6.38147 4.51357L7.85519 7.85475C7.53686 8.2454 7.35478 8.72323 7.35478 9.23301C7.35478 9.66972 7.48303 10.0774 7.70374 10.4196C7.33251 10.4803 6.98844 10.6396 6.69389 10.8765L4.29342 5.43424L6.38147 4.51357ZM1.7421 4.94779L3.21911 5.56699L5.99723 11.8664C5.9181 12.095 5.86848 12.3349 5.86848 12.5843C5.86848 13.0095 5.99529 13.4033 6.20529 13.7398H6.0055C5.87987 13.7398 5.75728 13.7556 5.63603 13.7765L1.7421 4.94779ZM6.0055 14.7766C6.07648 14.7766 9.8464 14.7788 9.60616 14.7786C9.73593 23.2005 10.5969 31.952 12.2294 36.444H10.7973C7.52277 32.9222 5.14288 25.1692 4.87863 15.949C4.86064 15.3067 5.3679 14.7766 6.0055 14.7766ZM19.9046 43.5799H9.57579C9.34787 43.5799 9.19661 43.3313 9.30513 43.1303C9.88443 42.0565 10.5089 41.1718 11.1657 40.4669H18.3145C18.9711 41.1718 19.5956 42.0565 20.1753 43.1303C20.284 43.3316 20.1321 43.5799 19.9046 43.5799ZM18.9657 39.4301H10.515C9.97775 39.4301 9.54036 38.9927 9.54036 38.4555C9.54036 37.9182 9.97774 37.4808 10.515 37.4808H18.9657C19.503 37.4808 19.9404 37.9182 19.9404 38.4555C19.9404 38.9927 19.503 39.4301 18.9657 39.4301ZM24.6021 15.949C24.3384 25.1692 21.9586 32.9223 18.6839 36.444H17.2517C18.8843 31.952 19.745 23.2005 19.8746 14.7786C19.9928 14.7785 23.5987 14.7765 23.4753 14.7766C24.1127 14.7766 24.6201 15.3066 24.6021 15.949ZM25.6892 5.26144L23.5784 12.2117C23.4365 11.3882 22.833 10.726 22.0452 10.4896L23.8067 4.68906C23.9642 4.17052 24.5127 3.87486 25.0338 4.03433C25.5528 4.1916 25.8468 4.74238 25.6892 5.26144Z" fill="#FFD0A1"/>
</svg>
