<svg width="35" height="13" viewBox="0 0 35 13" fill="none" xmlns="http://www.w3.org/2000/svg">
<path d="M34.4928 3.97244C34.0193 3.58573 33.6749 3.31549 33.3377 3.03128C31.4867 1.45648 29.4599 0.482715 27.2717 0.119299C25.9121 -0.104342 24.5525 -0.00184129 23.2037 0.32896C20.829 0.906698 18.612 2.03422 16.5278 3.5997C15.2866 4.53154 14.0849 5.54724 12.8653 6.53032C12.033 7.20125 11.2079 7.89547 10.3685 8.54309C9.29953 9.37243 8.1767 10.0666 6.99291 10.5698C5.88803 11.0404 4.75806 11.2501 3.59938 11.0637C2.58777 10.9006 1.734 10.3369 1.08112 9.29322C0.679344 8.65025 0.604015 7.97467 0.858711 7.21057C1.16721 6.28339 1.65509 5.59849 2.36536 5.18382C3.11151 4.75052 3.872 4.59211 4.66837 4.91825C5.23516 5.15121 5.71226 5.52394 5.98848 6.29271C5.74813 7.14068 5.228 7.62523 4.58946 7.8349C3.97604 8.0399 3.48458 7.68114 3.11868 6.99624C3.27293 6.55362 3.53839 6.40453 3.86842 6.37191C4.19128 6.34396 4.48184 6.45112 4.74012 6.75863C4.84057 6.01316 4.72936 5.73826 4.29172 5.57519C3.55633 5.3003 2.94291 5.83611 2.85681 6.82385C2.79942 7.51807 2.92138 8.11444 3.38772 8.53843C3.87559 8.98105 4.38857 9.13481 4.93742 8.76207C5.45757 8.41264 5.90957 7.95604 6.12839 7.21989C6.462 6.09703 6.12839 4.86234 5.32485 4.22403C4.67914 3.71152 3.96885 3.59971 3.24781 3.79073C1.98869 4.12619 1.04524 5.01143 0.675758 6.67476C0.385189 7.97467 0.42466 9.24197 1.02373 10.4301C1.3143 11.0031 1.71965 11.3572 2.16088 11.6741C3.35544 12.5267 4.64326 12.9553 6.00641 12.9926C9.50399 13.0905 12.8473 12.2192 16.0149 10.2484C17.2668 9.47027 18.465 8.56639 19.6703 7.67649C20.5205 7.0475 21.3778 6.42782 22.2531 5.85474C23.8674 4.80177 25.5749 4.11221 27.3721 3.83266C28.0824 3.72084 28.8034 3.66493 29.5173 3.67891C30.8553 3.70686 32.197 3.75345 33.5099 4.13551C33.6965 4.19142 33.8901 4.21937 34.0767 4.21006C34.1771 4.21006 34.274 4.09824 34.5 3.95846L34.4928 3.97244ZM9.20626 11.6647L8.8834 11.7253C8.8834 11.6974 8.8834 11.6647 8.8834 11.6368C8.99819 11.6508 9.11299 11.6694 9.22778 11.6834C9.26365 11.3852 9.4717 11.4225 9.61878 11.3712C11.5415 10.677 13.3388 9.6147 15.0607 8.31945C16.1153 7.52739 17.17 6.73533 18.221 5.93861C19.4407 5.02076 20.6891 4.17278 22.0056 3.50652C23.9427 2.52344 25.948 2.03888 28.0286 2.13206C28.5631 2.15536 29.094 2.22991 29.6106 2.43491C29.3989 2.5048 29.1909 2.53275 28.9792 2.53741C27.0493 2.60264 25.1946 3.12913 23.4082 4.0796C22.2567 4.68995 21.1518 5.42144 20.072 6.22282C18.3107 7.52739 16.5529 8.8506 14.6661 9.83834C12.9083 10.7562 11.1147 11.483 9.20985 11.6601L9.20626 11.6647ZM29.6608 1.74069C29.2805 1.72671 28.8931 1.75467 28.5164 1.68944C27.0959 1.44716 25.704 1.68944 24.3158 2.05285C22.8055 2.45354 21.385 3.18969 20.0326 4.12153C18.5977 5.10928 17.1915 6.16691 15.7817 7.21522C14.3898 8.2449 12.9944 9.2606 11.5129 10.0527C10.3183 10.691 9.07711 11.1103 7.6709 11.3898C7.87179 11.2221 7.96148 11.1243 8.06193 11.0684C9.49324 10.267 10.8098 9.20003 12.1227 8.12376C13.6365 6.87976 15.1467 5.62645 16.7 4.46631C18.551 3.08254 20.524 2.06683 22.6118 1.44716C24.8646 0.780898 27.1102 0.762261 29.3487 1.54966C29.4527 1.58694 29.5424 1.6941 29.6428 1.76399C29.7182 1.77331 29.7935 1.77797 29.8653 1.78728C29.8581 1.8199 29.8473 1.85251 29.8401 1.88047C29.7792 1.83388 29.7182 1.78729 29.6572 1.74535L29.6608 1.74069Z" fill="#FFD0A1"/>
</svg>
