<svg width="49" height="42" viewBox="0 0 49 42" fill="none" xmlns="http://www.w3.org/2000/svg">
<g clip-path="url(#clip0_119_25)">
<path d="M24.353 24.2469L24.1287 24.016C23.8744 23.754 23.4203 23.7185 23.1149 23.9364C22.8093 24.1545 22.7677 24.5435 23.022 24.8055L23.2463 25.0364C23.3887 25.183 23.5936 25.2587 23.8 25.2587C23.9623 25.2587 24.1257 25.2118 24.2601 25.116C24.5657 24.8979 24.6072 24.5088 24.353 24.2469Z" fill="#FFD0A1"/>
<path d="M25.6393 23.2638C25.2433 23.2324 24.8931 23.4827 24.8569 23.8221L24.8251 24.1212C24.7889 24.4605 25.0805 24.7608 25.4764 24.7918C25.4987 24.7936 25.5208 24.7944 25.5427 24.7944C25.9107 24.7944 26.2246 24.5537 26.2588 24.2335L26.2907 23.9344C26.3267 23.595 26.0351 23.2948 25.6393 23.2638Z" fill="#FFD0A1"/>
<path d="M23.0163 25.4114L22.6674 25.384C22.2724 25.3525 21.9212 25.6028 21.8849 25.9423C21.8486 26.2816 22.1402 26.5819 22.5361 26.613L22.885 26.6404C22.9074 26.6422 22.9295 26.6431 22.9515 26.6431C23.3194 26.6431 23.6333 26.4025 23.6675 26.0823C23.7038 25.7428 23.4122 25.4425 23.0163 25.4114Z" fill="#FFD0A1"/>
<path d="M30.9319 21.9742C28.2268 19.5206 23.734 19.2918 20.7038 21.4536C17.6736 23.6154 17.1205 27.4439 19.4444 30.1695C19.6276 30.3844 19.9091 30.5262 20.2165 30.5587C20.2617 30.5634 20.3071 30.5658 20.3524 30.5658C20.6128 30.5658 20.8687 30.4876 21.0703 30.3437L30.8367 23.3763C31.0735 23.2073 31.22 22.9592 31.2383 22.6955C31.2568 22.4304 31.145 22.1675 30.9319 21.9742ZM25.0325 25.9114L21.83 28.1961C20.8214 26.6975 21.1861 24.7444 22.7891 23.6009C23.5777 23.0383 24.5365 22.7639 25.4902 22.7639C26.4751 22.7639 27.4546 23.0567 28.2351 23.6267L25.0325 25.9114ZM29.3524 22.8296C27.2969 21.1892 24.0819 21.0728 21.8679 22.6524C19.6538 24.232 19.2037 26.9632 20.7126 28.9934L20.4166 29.2046C18.7643 27.0232 19.2638 24.0866 21.6249 22.4022C22.7498 21.5997 24.1237 21.205 25.4927 21.205C26.997 21.205 28.4953 21.6819 29.6485 22.6184L29.3524 22.8296Z" fill="#FFD0A1"/>
<path d="M17.406 19.4302L14.0422 16.547C13.6298 16.1935 12.9589 16.1936 12.5466 16.547L9.18284 19.4302C8.98311 19.6014 8.87305 19.8291 8.87305 20.0711C8.87305 20.3132 8.98301 20.5409 9.18284 20.7121L12.5466 23.5953C12.7528 23.772 13.0236 23.8604 13.2944 23.8604C13.5653 23.8604 13.836 23.7721 14.0422 23.5953L17.406 20.7121C17.6057 20.5409 17.7157 20.3132 17.7157 20.0711C17.7157 19.8291 17.6058 19.6014 17.406 19.4302ZM13.2943 22.4911L10.4712 20.0712L13.2943 17.6514L16.1176 20.0712L13.2943 22.4911Z" fill="#FFD0A1"/>
<path d="M31.6125 34.2538L28.2486 31.3706C27.8363 31.0173 27.1656 31.0172 26.7531 31.3706L23.3894 34.2538C22.977 34.6073 22.977 35.1824 23.3894 35.5357L26.7531 38.4189C26.9593 38.5957 27.23 38.684 27.5009 38.684C27.7717 38.684 28.0425 38.5956 28.2487 38.4189L31.6127 35.5356C32.0247 35.1822 32.0247 34.6073 31.6125 34.2538ZM27.501 37.3146L24.6778 34.8948L27.501 32.4749L30.3242 34.8948L27.501 37.3146Z" fill="#FFD0A1"/>
<path d="M36.5344 15.3889H33.882V15.1779C33.882 14.4197 33.5042 13.6946 32.8456 13.1884C32.536 12.9506 32.3418 12.6227 32.2977 12.2715H32.4341C33.1177 12.2715 33.6738 11.7948 33.6738 11.2089V10.1952C33.6738 10.0361 33.6329 9.8852 33.5595 9.7496C33.6329 9.614 33.6738 9.46307 33.6738 9.30401V8.29035C33.6738 7.7044 33.1177 7.22771 32.4341 7.22771H31.1076L34.7935 2.2626C35.1288 1.812 34.9739 1.21144 34.4482 0.923925L33.0375 0.152502C32.7827 0.0132122 32.48 -0.0327254 32.1851 0.02322C31.8901 0.0790834 31.638 0.230185 31.4757 0.448471L26.4295 7.22779H7.49877C6.81516 7.22779 6.25903 7.70448 6.25903 8.29043V9.30409C6.25903 9.46315 6.29999 9.61409 6.3734 9.74968C6.29999 9.88528 6.25903 10.0363 6.25903 10.1953V11.2089C6.25903 11.7949 6.81516 12.2716 7.49877 12.2716H7.63515C7.59103 12.6228 7.39685 12.9506 7.08725 13.1885C6.42862 13.6947 6.05088 14.4198 6.05088 15.1779V20.3929C6.05088 20.7337 6.37321 21.01 6.77076 21.01C7.16831 21.01 7.49064 20.7337 7.49064 20.3929V15.8732H32.4422V36.4485C32.4422 36.5502 32.4387 36.6515 32.4338 36.7526C32.4312 36.8031 32.4275 36.8537 32.4236 36.9043C32.4204 36.9495 32.4167 36.9946 32.4124 37.0396C32.4059 37.1072 32.3988 37.1747 32.3901 37.2423C32.3876 37.2615 32.3847 37.2807 32.382 37.2999C32.3712 37.3782 32.3596 37.4565 32.3458 37.5348C32.3453 37.5379 32.3453 37.5409 32.3448 37.5441C32.2473 38.0945 32.0772 38.6339 31.8331 39.1564C31.7624 39.3076 31.675 39.4494 31.5759 39.583C28.9027 39.0095 24.7284 38.6708 20.2492 38.6708C15.5058 38.6708 11.0602 39.0591 8.44183 39.6929C8.30593 39.5288 8.19004 39.3497 8.09969 39.1564C7.69554 38.2914 7.49054 37.3804 7.49054 36.4486V23.2617C7.49054 22.921 7.16821 22.6447 6.77066 22.6447C6.37311 22.6447 6.05078 22.921 6.05078 23.2617V36.4484C6.05078 37.5382 6.29042 38.6035 6.7631 39.615C7.44011 41.0639 9.05414 42 10.875 42H29.058C30.8788 42 32.4926 41.0639 33.1697 39.615C33.3788 39.1676 33.542 38.7096 33.6594 38.2437H36.5345C40.0716 38.2437 42.9492 35.7772 42.9492 32.7454V20.8871C42.949 17.8554 40.0715 15.3889 36.5344 15.3889ZM32.5235 1.33515L33.414 1.82209L32.8519 2.57924L31.7021 2.43864L32.5235 1.33515ZM30.8516 3.58125L32.0035 3.7221L31.1345 4.89269L29.9805 4.75159L30.8516 3.58125ZM29.1301 5.89413L30.2861 6.03547L29.4011 7.22763H28.1375L29.1301 5.89413ZM7.69879 10.3666H25.5616C25.9593 10.3666 26.2815 10.0903 26.2815 9.74952C26.2815 9.40876 25.9593 9.13248 25.5616 9.13248H7.69879V8.46171H32.2342V9.13248H28.9578C28.5602 9.13248 28.238 9.40876 28.238 9.74952C28.238 10.0903 28.5602 10.3666 28.9578 10.3666H32.2341V11.0373H7.69879V10.3666ZM7.61534 14.639C7.71028 14.4379 7.85613 14.255 8.0484 14.1073C8.66243 13.6354 9.03223 12.9734 9.0796 12.2714H22.6755L20.9131 14.639H7.61534ZM23.8994 14.639H22.6209L23.1372 13.9455L24.308 14.0887L23.8994 14.639ZM23.9877 12.8029L24.3833 12.2714H25.6571L25.1565 12.9458L23.9877 12.8029ZM25.606 14.6389L27.3634 12.2714H30.8533C30.9007 12.9733 31.2704 13.6354 31.8845 14.1072C32.0766 14.2549 32.2225 14.4379 32.3175 14.6389H25.606ZM29.058 40.7659H10.875C10.5576 40.7659 10.25 40.723 9.95969 40.6437C12.5093 40.1803 16.2579 39.9048 20.2493 39.9048C24.065 39.9048 27.6324 40.1522 30.1779 40.5807C29.8295 40.7006 29.451 40.7659 29.058 40.7659ZM33.882 19.0729H36.5344C37.7015 19.0729 38.6511 19.8867 38.6511 20.8871V32.7454C38.6511 33.7458 37.7015 34.5597 36.5344 34.5597H33.882V19.0729ZM41.5093 32.7454C41.5093 35.0967 39.2776 37.0096 36.5344 37.0096H33.8602C33.8668 36.9232 33.8716 36.8365 33.8752 36.7498C33.8758 36.7365 33.8763 36.7234 33.8768 36.7102C33.8799 36.6231 33.882 36.5358 33.882 36.4484V35.7938H36.5344C38.4954 35.7938 40.0908 34.4263 40.0908 32.7454V20.8871C40.0908 19.2063 38.4954 17.8388 36.5344 17.8388H33.882V16.6229H36.5344C39.2775 16.6229 41.5093 18.5358 41.5093 20.8871V32.7454Z" fill="#FFD0A1"/>
<path d="M19.5285 33.9886C19.3312 32.7567 18.4587 31.6663 16.9352 30.7479C14.4382 29.2424 9.93092 29.5782 9.74037 29.5934C9.38608 29.6213 9.10882 29.8669 9.08767 30.1712C9.07629 30.335 8.83071 34.2072 10.6671 36.2975C11.7874 37.5729 13.0871 38.285 14.53 38.4141C14.6889 38.4283 14.8446 38.435 14.9973 38.435C16.8963 38.435 18.2849 37.4144 18.3474 37.3676C18.378 37.3448 18.4062 37.3198 18.4318 37.2929C18.4887 37.2334 19.8205 35.8113 19.5285 33.9886ZM14.6664 37.1856C13.6423 37.09 12.6836 36.5414 11.8173 35.5552C10.9193 34.533 10.6309 32.8723 10.5454 31.6798L11.3394 32.3387C11.0487 32.47 10.8913 32.7597 10.9796 33.0433C11.0656 33.3192 11.3566 33.5014 11.6747 33.5014C11.7363 33.5014 11.7987 33.4946 11.8609 33.4803L12.5305 33.327L13.0772 33.7807L12.6048 33.8888C12.2206 33.9767 11.9924 34.3148 12.095 34.6441C12.1809 34.9201 12.4718 35.1022 12.7901 35.1022C12.8515 35.1022 12.914 35.0954 12.9762 35.0811L14.2838 34.7819L14.9086 35.3004L14.0375 35.4997C13.6534 35.5877 13.4251 35.9258 13.5277 36.2551C13.6137 36.531 13.9046 36.7131 14.2228 36.7131C14.2843 36.7131 14.3468 36.7063 14.409 36.6921L16.1153 36.3017L16.7278 36.8099C16.2259 37.034 15.4888 37.2623 14.6664 37.1856ZM17.729 35.9232L17.1298 35.426L17.538 33.9214C17.628 33.5894 17.3871 33.2577 16.9998 33.1806C16.6123 33.1033 16.2256 33.31 16.1356 33.6419L15.9233 34.4248L15.2851 33.8953L15.5916 32.7653C15.6816 32.4334 15.4407 32.1017 15.0534 32.0245C14.6661 31.9474 14.2793 32.1539 14.1892 32.4858L14.0785 32.894L13.5318 32.4404L13.6887 31.8619C13.7788 31.5299 13.5379 31.1982 13.1506 31.1211C12.8168 31.0545 12.4844 31.1988 12.3407 31.452L11.5465 30.793C11.7741 30.7988 12.0164 30.8089 12.2678 30.825C13.9459 30.9323 15.2733 31.2547 16.1068 31.7572C17.2849 32.4675 17.9556 33.2709 18.1002 34.1452C18.2164 34.8476 17.974 35.4866 17.729 35.9232Z" fill="#FFD0A1"/>
</g>
<defs>
<clipPath id="clip0_119_25">
<rect width="49" height="42" fill="white"/>
</clipPath>
</defs>
</svg>
