<svg width="35" height="13" viewBox="0 0 35 13" fill="none" xmlns="http://www.w3.org/2000/svg">
<path d="M0.507182 3.97244C0.980699 3.58573 1.32509 3.31549 1.66229 3.03128C3.51331 1.45648 5.5401 0.482715 7.72833 0.119299C9.0879 -0.104342 10.4475 -0.00184129 11.7963 0.32896C14.171 0.906698 16.388 2.03422 18.4722 3.5997C19.7134 4.53154 20.9151 5.54724 22.1347 6.53032C22.967 7.20125 23.7921 7.89547 24.6315 8.54309C25.7005 9.37243 26.8233 10.0666 28.0071 10.5698C29.112 11.0404 30.2419 11.2501 31.4006 11.0637C32.4122 10.9006 33.266 10.3369 33.9189 9.29322C34.3207 8.65025 34.396 7.97467 34.1413 7.21057C33.8328 6.28339 33.3449 5.59849 32.6346 5.18382C31.8885 4.75052 31.128 4.59211 30.3316 4.91825C29.7648 5.15121 29.2877 5.52394 29.0115 6.29271C29.2519 7.14068 29.772 7.62523 30.4105 7.8349C31.024 8.0399 31.5154 7.68114 31.8813 6.99624C31.7271 6.55362 31.4616 6.40453 31.1316 6.37191C30.8087 6.34396 30.5182 6.45112 30.2599 6.75863C30.1594 6.01316 30.2706 5.73826 30.7083 5.57519C31.4437 5.3003 32.0571 5.83611 32.1432 6.82385C32.2006 7.51807 32.0786 8.11444 31.6123 8.53843C31.1244 8.98105 30.6114 9.13481 30.0626 8.76207C29.5424 8.41264 29.0904 7.95604 28.8716 7.21989C28.538 6.09703 28.8716 4.86234 29.6752 4.22403C30.3209 3.71152 31.0311 3.59971 31.7522 3.79073C33.0113 4.12619 33.9548 5.01143 34.3242 6.67476C34.6148 7.97467 34.5753 9.24197 33.9763 10.4301C33.6857 11.0031 33.2803 11.3572 32.8391 11.6741C31.6446 12.5267 30.3567 12.9553 28.9936 12.9926C25.496 13.0905 22.1527 12.2192 18.9851 10.2484C17.7332 9.47027 16.535 8.56639 15.3297 7.67649C14.4795 7.0475 13.6222 6.42782 12.7469 5.85474C11.1326 4.80177 9.42511 4.11221 7.6279 3.83266C6.91762 3.72084 6.19657 3.66493 5.4827 3.67891C4.14466 3.70686 2.80302 3.75345 1.49009 4.13551C1.30355 4.19142 1.10985 4.21937 0.923315 4.21006C0.822872 4.21006 0.725997 4.09824 0.5 3.95846L0.507182 3.97244ZM25.7937 11.6647L26.1166 11.7253C26.1166 11.6974 26.1166 11.6647 26.1166 11.6368C26.0018 11.6508 25.887 11.6694 25.7722 11.6834C25.7363 11.3852 25.5283 11.4225 25.3812 11.3712C23.4585 10.677 21.6612 9.6147 19.9393 8.31945C18.8847 7.52739 17.83 6.73533 16.779 5.93861C15.5593 5.02076 14.3109 4.17278 12.9944 3.50652C11.0573 2.52344 9.05203 2.03888 6.97142 2.13206C6.43692 2.15536 5.906 2.22991 5.38943 2.43491C5.60108 2.5048 5.80914 2.53275 6.02079 2.53741C7.95073 2.60264 9.80536 3.12913 11.5918 4.0796C12.7433 4.68995 13.8482 5.42144 14.928 6.22282C16.6893 7.52739 18.4471 8.8506 20.3339 9.83834C22.0917 10.7562 23.8853 11.483 25.7901 11.6601L25.7937 11.6647ZM5.33923 1.74069C5.71947 1.72671 6.1069 1.75467 6.48356 1.68944C7.90411 1.44716 9.29595 1.68944 10.6842 2.05285C12.1945 2.45354 13.615 3.18969 14.9674 4.12153C16.4023 5.10928 17.8085 6.16691 19.2183 7.21522C20.6102 8.2449 22.0056 9.2606 23.4871 10.0527C24.6817 10.691 25.9229 11.1103 27.3291 11.3898C27.1282 11.2221 27.0385 11.1243 26.9381 11.0684C25.5068 10.267 24.1902 9.20003 22.8773 8.12376C21.3635 6.87976 19.8533 5.62645 18.3 4.46631C16.449 3.08254 14.476 2.06683 12.3882 1.44716C10.1354 0.780898 7.88976 0.762261 5.65132 1.54966C5.54728 1.58694 5.4576 1.6941 5.35716 1.76399C5.28183 1.77331 5.20649 1.77797 5.13475 1.78728C5.14192 1.8199 5.15269 1.85251 5.15986 1.88047C5.22085 1.83388 5.28181 1.78729 5.34279 1.74535L5.33923 1.74069Z" fill="#FFD0A1"/>
</svg>
