<svg width="40" height="41" viewBox="0 0 40 41" fill="none" xmlns="http://www.w3.org/2000/svg">
<path d="M22.5259 40.2188C22.8883 40.2188 23.1821 39.9249 23.1821 39.5625C23.1821 39.2001 22.8883 38.9062 22.5259 38.9062C22.1634 38.9062 21.8696 39.2001 21.8696 39.5625C21.8696 39.9249 22.1634 40.2188 22.5259 40.2188Z" fill="#FFD0A1"/>
<path d="M25.1047 32.4783C25.0317 32.4324 24.9504 32.4014 24.8654 32.387C24.7804 32.3725 24.6934 32.375 24.6094 32.3942C24.5253 32.4134 24.4459 32.4489 24.3756 32.4988C24.3053 32.5487 24.2456 32.612 24.1997 32.685C23.3836 33.9681 22.7582 35.363 22.3432 36.8259C22.3191 36.9093 22.3118 36.9966 22.3216 37.0828C22.3315 37.169 22.3584 37.2524 22.4007 37.3281C22.443 37.4039 22.4999 37.4705 22.5681 37.5241C22.6363 37.5777 22.7145 37.6173 22.7981 37.6405C22.8817 37.6637 22.9691 37.6701 23.0551 37.6593C23.1412 37.6486 23.2243 37.6208 23.2996 37.5777C23.3749 37.5346 23.4409 37.477 23.4938 37.4082C23.5467 37.3395 23.5855 37.2609 23.6078 37.177C23.989 35.8367 24.5626 34.5588 25.3108 33.3833C25.3566 33.3103 25.3877 33.229 25.4022 33.1441C25.4167 33.0591 25.4143 32.9721 25.3952 32.8881C25.376 32.8041 25.3405 32.7246 25.2907 32.6543C25.2408 32.584 25.1776 32.5242 25.1047 32.4783Z" fill="#FFD0A1"/>
<path d="M35.596 5.04788C33.284 1.69838 28.813 0 22.307 0C15.8009 0 11.3299 1.69838 9.01789 5.04788C5.95452 9.48741 7.59252 15.6043 8.59002 18.3579C8.17777 18.9361 7.79745 19.5364 7.45077 20.1561C6.36848 18.5957 5.6139 16.832 5.23264 14.9717C5.20422 14.8215 5.12429 14.686 5.00665 14.5885C4.889 14.491 4.74101 14.4376 4.5882 14.4375H0.650705C0.521757 14.4394 0.396175 14.4789 0.289466 14.5513C0.182757 14.6238 0.0995939 14.7258 0.0502462 14.845C0.000898543 14.9641 -0.0124729 15.0951 0.0117831 15.2218C0.0360392 15.3485 0.0968604 15.4652 0.186736 15.5577C1.24133 16.611 1.86936 20.2282 1.96321 22.342C2.2677 29.1775 5.83836 32.1457 6.60092 32.7042C7.32615 33.8059 8.28724 34.7325 9.41463 35.417C10.542 36.1015 11.8075 36.5268 13.1195 36.6621V37.4062C13.1195 37.9284 13.3269 38.4292 13.6961 38.7984C14.0653 39.1676 14.5661 39.375 15.0882 39.375H32.1507C32.6728 39.375 33.1736 39.1676 33.5428 38.7984C33.912 38.4292 34.1195 37.9284 34.1195 37.4062V36.5223C35.5948 35.8413 36.8602 34.7767 37.7837 33.4398C38.7072 32.1028 39.2548 30.5424 39.3694 28.9216C39.6083 24.5844 37.5359 20.3372 36.0259 18.356C37.0214 15.6043 38.6594 9.48741 35.596 5.04788ZM10.1007 5.79338C12.1502 2.82188 16.2583 1.3125 22.307 1.3125C28.3556 1.3125 32.4637 2.82188 34.5132 5.79403C36.9794 9.36863 35.957 14.3253 35.0579 17.1229C34.842 16.8722 34.693 16.7147 34.6248 16.6445C34.5224 16.2401 34.368 15.8508 34.1654 15.4862C34.8275 12.8933 35.222 9.37059 33.5787 6.76462C31.8508 4.01691 28.0577 2.625 22.307 2.625C16.5562 2.625 12.7631 4.01691 11.0306 6.76397C9.38999 9.36994 9.78374 12.8927 10.4439 15.4855C10.2413 15.8501 10.0869 16.2395 9.98455 16.6438C9.91892 16.714 9.76733 16.8715 9.55142 17.1222C8.65302 14.3272 7.63189 9.36797 10.1007 5.79338ZM22.307 11.8125C27.5012 11.8125 32.0063 13.7767 33.1646 16.4062H11.4493C12.6076 13.7767 17.1127 11.8125 22.307 11.8125ZM21.1132 8.53125H23.5007L23.1693 10.523C22.5948 10.4941 22.0192 10.4941 21.4446 10.523L21.1132 8.53125ZM33.1351 14.1245C31.3284 12.2948 28.187 10.9856 24.4877 10.6122L24.7987 8.7465C24.8288 8.55841 24.8177 8.36605 24.7664 8.18264C24.715 7.99922 24.6246 7.8291 24.5012 7.68395C24.3779 7.53879 24.2246 7.42206 24.0519 7.34176C23.8792 7.26146 23.6911 7.21949 23.5007 7.21875H21.1132C20.923 7.21997 20.7354 7.26228 20.563 7.34278C20.3907 7.42329 20.2379 7.54009 20.1149 7.68518C19.9919 7.83028 19.9018 8.00024 19.8506 8.18342C19.7994 8.36661 19.7885 8.55868 19.8185 8.7465L20.1295 10.6122C16.4302 10.9856 13.2888 12.2948 11.4821 14.1245C11.0936 12.1314 10.9125 9.41194 12.1384 7.46353C13.6169 5.124 17.0373 3.9375 22.307 3.9375C27.5766 3.9375 30.997 5.12466 32.4729 7.46419C33.7014 9.41194 33.5203 12.1314 33.1351 14.1245ZM5.3337 29.3291C4.03515 27.2044 3.32489 24.7726 3.27571 22.283C3.21664 20.9777 2.85439 17.743 1.87396 15.75H4.0632C4.34211 16.8971 5.14208 19.6147 6.80502 21.4259C5.61355 23.8803 5.1053 26.6104 5.3337 29.3291ZM15.0882 38.0625C14.9142 38.0625 14.7472 37.9934 14.6242 37.8703C14.5011 37.7472 14.432 37.5803 14.432 37.4062V36.75H26.2445V37.4062C26.2466 37.6303 26.2875 37.8523 26.3652 38.0625H15.0882ZM32.807 37.4062C32.807 37.5803 32.7378 37.7472 32.6147 37.8703C32.4917 37.9934 32.3247 38.0625 32.1507 38.0625H28.2132C28.0392 38.0625 27.8722 37.9934 27.7492 37.8703C27.6261 37.7472 27.557 37.5803 27.557 37.4062V36.75H32.807V37.4062ZM33.326 35.4375H27.0379C25.8269 34.9259 24.7653 34.1159 23.9521 33.0831C23.1388 32.0503 22.6004 30.8284 22.387 29.5312H37.9769C37.7635 30.8284 37.2251 32.0503 36.4118 33.0831C35.5986 34.1159 34.537 34.9259 33.326 35.4375ZM21.8646 28.2188C21.6364 28.1511 21.4163 28.0584 21.2084 27.9425C20.4841 27.4817 19.9035 26.8271 19.5323 26.0531C20.3985 25.928 21.2822 26.0724 22.0635 26.4666C22.7549 26.9087 23.3308 27.5094 23.7435 28.2188H21.8646ZM25.5744 24.6894C26.2 23.7104 27.0929 22.9311 28.1476 22.4438C28.3457 23.6144 28.1667 24.8177 27.6364 25.8799C27.0096 26.8581 26.117 27.6373 25.0632 28.1262C24.8628 26.9554 25.0419 25.7512 25.5744 24.6894ZM38.057 28.2188H27.3227C27.9021 27.7485 28.3934 27.179 28.7736 26.5368C30.0776 24.278 29.3052 21.464 29.2711 21.3452C29.247 21.2604 29.2062 21.1813 29.1509 21.1126C29.0956 21.044 29.027 20.9871 28.9493 20.9455C28.8716 20.904 28.7863 20.8785 28.6985 20.8706C28.6107 20.8627 28.5222 20.8725 28.4383 20.8996C26.7923 21.4694 25.3835 22.5722 24.4352 24.0332C24.0731 24.6794 23.8406 25.39 23.7507 26.1253C23.4412 25.8168 23.0939 25.5486 22.7171 25.3273C20.8468 24.2478 18.5217 24.8909 18.4239 24.9191C18.3398 24.943 18.2612 24.9835 18.1929 25.0382C18.1246 25.0929 18.068 25.1607 18.0263 25.2376C17.9846 25.3146 17.9587 25.399 17.9501 25.4861C17.9415 25.5732 17.9505 25.6611 17.9764 25.7447C18.4336 27.1152 19.3412 28.2907 20.5515 29.0798C20.7074 29.1691 20.8692 29.2478 21.0358 29.3153C21.1711 30.5129 21.5444 31.6714 22.1337 32.7228C22.723 33.7741 23.5164 34.6971 24.4673 35.4375H14.432C9.5022 35.4375 6.55695 31.7671 6.55695 28.2188C6.55695 22.7456 9.9537 18.6375 10.7799 17.7188H33.8346C34.6615 18.6375 38.057 22.7292 38.057 28.2188Z" fill="#FFD0A1"/>
</svg>
